<svg width="27" height="27" viewBox="0 0 27 27" fill="none" xmlns="http://www.w3.org/2000/svg">
<path d="M9.21059 5.0724C10.386 4.0788 11.9736 3.6 13.5 3.6C15.0264 3.6 16.614 4.0788 17.7894 5.0724C18.9144 6.0228 19.8 7.56 19.8 10.0224C19.8 10.692 19.5228 11.7432 18.918 13.1238C18.3348 14.4612 17.523 15.9318 16.6374 17.3844C15.6342 19.0104 14.577 20.6025 13.4676 22.158C12.3454 20.589 11.2867 18.9755 10.2942 17.3214C9.42119 15.8562 8.62739 14.3766 8.05679 13.0464C7.46459 11.6676 7.19999 10.6416 7.19999 10.0224C7.19999 7.56 8.08559 6.0228 9.21059 5.0724ZM14.5926 23.679C17.028 20.2734 21.6 13.5756 21.6 10.0224C21.6 4.1184 17.2386 1.8 13.5 1.8C9.76139 1.8 5.39999 4.1184 5.39999 10.0224C5.39999 13.4082 9.85499 20.2644 12.3624 23.7024C12.8196 24.3288 13.212 24.8418 13.5 25.2L13.8546 24.7086L14.5926 23.679Z" fill="black"/>
<path d="M12.6562 14.2312H14.3438V15.9187H12.6562V14.2312Z" fill="black"/>
<path fill-rule="evenodd" clip-rule="evenodd" d="M13.5 9C12.6934 9 12.15 9.73305 12.15 10.35H10.8C10.8 9.13365 11.8098 7.65 13.5 7.65C15.1848 7.65 16.2 9.09585 16.2 10.35C16.2 11.4151 15.4521 11.9551 14.989 12.2893L14.9107 12.346C14.4011 12.7186 14.175 12.9305 14.175 13.3875H12.825C12.825 12.1981 13.6087 11.6257 14.1122 11.2579L14.1142 11.2565C14.6758 10.8454 14.85 10.6895 14.85 10.35C14.85 9.70875 14.3127 9 13.5 9Z" fill="black"/>
</svg>
