<svg width="25" height="25" viewBox="0 0 25 25" fill="none" xmlns="http://www.w3.org/2000/svg">
<g clip-path="url(#clip0_9_149)">
<path d="M12.5 16.25C13.4946 16.25 14.4484 15.8549 15.1517 15.1517C15.8549 14.4484 16.25 13.4946 16.25 12.5C16.25 11.5054 15.8549 10.5516 15.1517 9.84835C14.4484 9.14509 13.4946 8.75 12.5 8.75C11.5054 8.75 10.5516 9.14509 9.84835 9.84835C9.14509 10.5516 8.75 11.5054 8.75 12.5C8.75 13.4946 9.14509 14.4484 9.84835 15.1517C10.5516 15.8549 11.5054 16.25 12.5 16.25ZM13.125 3.125C13.125 2.95924 13.0592 2.80027 12.9419 2.68306C12.8247 2.56585 12.6658 2.5 12.5 2.5C12.3342 2.5 12.1753 2.56585 12.0581 2.68306C11.9408 2.80027 11.875 2.95924 11.875 3.125V5.025C10.1077 5.1728 8.44998 5.94196 7.19597 7.19597C5.94196 8.44998 5.1728 10.1077 5.025 11.875H3.125C2.95924 11.875 2.80027 11.9408 2.68306 12.0581C2.56585 12.1753 2.5 12.3342 2.5 12.5C2.5 12.6658 2.56585 12.8247 2.68306 12.9419C2.80027 13.0592 2.95924 13.125 3.125 13.125H5.025C5.1728 14.8923 5.94196 16.55 7.19597 17.804C8.44998 19.058 10.1077 19.8272 11.875 19.975V21.875C11.875 22.0408 11.9408 22.1997 12.0581 22.3169C12.1753 22.4342 12.3342 22.5 12.5 22.5C12.6658 22.5 12.8247 22.4342 12.9419 22.3169C13.0592 22.1997 13.125 22.0408 13.125 21.875V19.975C14.8922 19.827 16.5498 19.0577 17.8038 17.8038C19.0577 16.5498 19.827 14.8922 19.975 13.125H21.875C22.0408 13.125 22.1997 13.0592 22.3169 12.9419C22.4342 12.8247 22.5 12.6658 22.5 12.5C22.5 12.3342 22.4342 12.1753 22.3169 12.0581C22.1997 11.9408 22.0408 11.875 21.875 11.875H19.975C19.8272 10.1077 19.058 8.44998 17.804 7.19597C16.55 5.94196 14.8923 5.1728 13.125 5.025V3.125ZM12.5 18.75C10.8424 18.75 9.25269 18.0915 8.08058 16.9194C6.90848 15.7473 6.25 14.1576 6.25 12.5C6.25 10.8424 6.90848 9.25269 8.08058 8.08058C9.25269 6.90848 10.8424 6.25 12.5 6.25C14.1576 6.25 15.7473 6.90848 16.9194 8.08058C18.0915 9.25269 18.75 10.8424 18.75 12.5C18.75 14.1576 18.0915 15.7473 16.9194 16.9194C15.7473 18.0915 14.1576 18.75 12.5 18.75Z" fill="black"/>
</g>
<defs>
<clipPath id="clip0_9_149">
<rect width="25" height="25" fill="white"/>
</clipPath>
</defs>
</svg>
