<svg width="32" height="32" viewBox="0 0 32 32" fill="none" xmlns="http://www.w3.org/2000/svg">
<path d="M18.7467 13.2533L16 12L18.7467 10.7467L20 7.99999L21.2534 10.7467L24 12L21.2534 13.2533L20 16L18.7467 13.2533ZM5.33337 18.6667L6.58671 15.92L9.33337 14.6667L6.58671 13.4133L5.33337 10.6667L4.08004 13.4133L1.33337 14.6667L4.08004 15.92L5.33337 18.6667ZM11.3334 12L12.7867 8.78666L16 7.33332L12.7867 5.87999L11.3334 2.66666L9.88004 5.87999L6.66671 7.33332L9.88004 8.78666L11.3334 12ZM6.00004 27.3333L14 19.32L19.3334 24.6533L30.6667 11.9067L28.7867 10.0267L19.3334 20.6533L14 15.32L4.00004 25.3333L6.00004 27.3333Z" fill="white"/>
</svg>
