<svg width="21" height="21" viewBox="0 0 21 21" fill="none" xmlns="http://www.w3.org/2000/svg">
<path d="M17.9375 7C16.7195 4.21838 13.7174 2.625 10.4807 2.625C6.38662 2.625 3.02137 5.733 2.625 9.7125" stroke="black" stroke-width="1.5" stroke-linecap="round" stroke-linejoin="round"/>
<path d="M14.4279 7.35001H17.9016C18.0269 7.35001 18.1471 7.30022 18.2357 7.21161C18.3243 7.123 18.3741 7.00282 18.3741 6.87751V3.41251M3.0625 14C4.2805 16.7816 7.28263 18.375 10.5192 18.375C14.6134 18.375 17.9786 15.267 18.375 11.2875" stroke="black" stroke-width="1.5" stroke-linecap="round" stroke-linejoin="round"/>
<path d="M6.57213 13.65H3.09837C3.03625 13.6499 2.97472 13.662 2.91729 13.6857C2.85986 13.7094 2.80767 13.7442 2.7637 13.7881C2.71973 13.832 2.68485 13.8841 2.66105 13.9415C2.63725 13.9989 2.625 14.0604 2.625 14.1225V17.5875" stroke="black" stroke-width="1.5" stroke-linecap="round" stroke-linejoin="round"/>
</svg>
