<svg width="16" height="16" viewBox="0 0 16 16" fill="none" xmlns="http://www.w3.org/2000/svg">
<path d="M12.8538 12.1463C12.9002 12.1927 12.9371 12.2479 12.9622 12.3086C12.9873 12.3693 13.0003 12.4343 13.0003 12.5C13.0003 12.5657 12.9873 12.6308 12.9622 12.6915C12.9371 12.7521 12.9002 12.8073 12.8538 12.8538C12.8073 12.9002 12.7521 12.9371 12.6915 12.9622C12.6308 12.9873 12.5657 13.0003 12.5 13.0003C12.4343 13.0003 12.3693 12.9873 12.3086 12.9622C12.2479 12.9371 12.1927 12.9002 12.1463 12.8538L8 8.70688L3.85375 12.8538C3.75993 12.9476 3.63269 13.0003 3.5 13.0003C3.36732 13.0003 3.24007 12.9476 3.14625 12.8538C3.05243 12.7599 2.99973 12.6327 2.99973 12.5C2.99973 12.3673 3.05243 12.2401 3.14625 12.1463L7.29313 8L3.14625 3.85375C3.05243 3.75993 2.99973 3.63269 2.99973 3.5C2.99973 3.36732 3.05243 3.24007 3.14625 3.14625C3.24007 3.05243 3.36732 2.99973 3.5 2.99973C3.63269 2.99973 3.75993 3.05243 3.85375 3.14625L8 7.29313L12.1463 3.14625C12.2401 3.05243 12.3673 2.99973 12.5 2.99973C12.6327 2.99973 12.7599 3.05243 12.8538 3.14625C12.9476 3.24007 13.0003 3.36732 13.0003 3.5C13.0003 3.63269 12.9476 3.75993 12.8538 3.85375L8.70688 8L12.8538 12.1463Z" fill="black"/>
</svg>
