<svg width="34" height="49" viewBox="0 0 34 49" fill="none" xmlns="http://www.w3.org/2000/svg">
<g filter="url(#filter0_d_1989_17)">
<mask id="path-1-inside-1_1989_17" fill="white">
<path fill-rule="evenodd" clip-rule="evenodd" d="M25.3589 23.4238C26.4007 21.6936 27 19.6668 27 17.5C27 11.1487 21.8513 6 15.5 6C9.14873 6 4 11.1487 4 17.5C4 19.6658 4.59869 21.6917 5.63959 23.4213L15.5 40.5L25.3589 23.4238Z"/>
</mask>
<path fill-rule="evenodd" clip-rule="evenodd" d="M25.3589 23.4238C26.4007 21.6936 27 19.6668 27 17.5C27 11.1487 21.8513 6 15.5 6C9.14873 6 4 11.1487 4 17.5C4 19.6658 4.59869 21.6917 5.63959 23.4213L15.5 40.5L25.3589 23.4238Z" fill="#FE8686"/>
<path d="M25.3589 23.4238L24.5022 22.908L24.4975 22.9158L24.4929 22.9238L25.3589 23.4238ZM5.63959 23.4213L6.50561 22.9213L6.50108 22.9135L6.4964 22.9057L5.63959 23.4213ZM15.5 40.5L14.6339 41L15.5 42.5L16.366 41L15.5 40.5ZM26 17.5C26 19.48 25.4529 21.3291 24.5022 22.908L26.2156 23.9397C27.3486 22.0581 28 19.8536 28 17.5H26ZM15.5 7C21.299 7 26 11.701 26 17.5H28C28 10.5964 22.4036 5 15.5 5V7ZM5 17.5C5 11.701 9.70101 7 15.5 7V5C8.59644 5 3 10.5964 3 17.5H5ZM6.4964 22.9057C5.54656 21.3274 5 19.479 5 17.5H3C3 19.8525 3.65082 22.056 4.78278 23.937L6.4964 22.9057ZM16.366 40L6.50561 22.9213L4.77356 23.9213L14.6339 41L16.366 40ZM24.4929 22.9238L14.6339 40L16.366 41L26.2249 23.9238L24.4929 22.9238Z" fill="white" mask="url(#path-1-inside-1_1989_17)"/>
<g clip-path="url(#clip0_1989_17)">
<path d="M18.5478 12.0638C18.6396 12.1169 18.7106 12.1997 18.7492 12.2984C18.7879 12.3972 18.7919 12.5062 18.7606 12.6075L17.0722 18.0938H20.1875C20.2791 18.0937 20.3686 18.1205 20.4451 18.1708C20.5216 18.221 20.5817 18.2926 20.618 18.3767C20.6543 18.4607 20.6652 18.5536 20.6493 18.6437C20.6335 18.7339 20.5916 18.8174 20.5288 18.8841L13.0288 26.8528C12.9562 26.93 12.8596 26.9803 12.7548 26.9956C12.65 27.0108 12.5431 26.9901 12.4515 26.9368C12.36 26.8835 12.2891 26.8008 12.2506 26.7022C12.2121 26.6035 12.2081 26.4947 12.2394 26.3934L13.9278 20.9063H10.8125C10.721 20.9063 10.6314 20.8795 10.5549 20.8292C10.4784 20.779 10.4183 20.7074 10.382 20.6233C10.3457 20.5393 10.3348 20.4464 10.3507 20.3563C10.3665 20.2661 10.4084 20.1826 10.4713 20.1159L17.9713 12.1472C18.0437 12.0701 18.1402 12.0198 18.2448 12.0045C18.3495 11.9892 18.4563 12.0098 18.5478 12.0628V12.0638Z" fill="#FFF500"/>
</g>
</g>
<circle cx="26" cy="8" r="7.5" fill="#FF5252" stroke="white"/>
<g clip-path="url(#clip1_1989_17)">
<path d="M25.002 11C25.002 10.8687 25.0279 10.7386 25.0781 10.6173C25.1284 10.496 25.202 10.3858 25.2949 10.2929C25.3878 10.2 25.498 10.1264 25.6193 10.0761C25.7406 10.0259 25.8707 10 26.002 10C26.1333 10 26.2634 10.0259 26.3847 10.0761C26.506 10.1264 26.6162 10.2 26.7091 10.2929C26.802 10.3858 26.8756 10.496 26.9259 10.6173C26.9761 10.7386 27.002 10.8687 27.002 11C27.002 11.2652 26.8966 11.5196 26.7091 11.7071C26.5216 11.8946 26.2672 12 26.002 12C25.7368 12 25.4824 11.8946 25.2949 11.7071C25.1074 11.5196 25.002 11.2652 25.002 11ZM25.1 4.995C25.0867 4.86884 25.1 4.74129 25.1392 4.62063C25.1784 4.49996 25.2425 4.38888 25.3273 4.29459C25.4122 4.20029 25.5159 4.12489 25.6318 4.07328C25.7477 4.02167 25.8731 3.995 26 3.995C26.1269 3.995 26.2523 4.02167 26.3682 4.07328C26.4841 4.12489 26.5878 4.20029 26.6727 4.29459C26.7575 4.38888 26.8216 4.49996 26.8608 4.62063C26.9 4.74129 26.9133 4.86884 26.9 4.995L26.55 8.502C26.5358 8.63796 26.4717 8.76384 26.3701 8.85534C26.2686 8.94684 26.1367 8.99747 26 8.99747C25.8633 8.99747 25.7314 8.94684 25.6299 8.85534C25.5283 8.76384 25.4642 8.63796 25.45 8.502L25.1 4.995Z" fill="white"/>
</g>
<defs>
<filter id="filter0_d_1989_17" x="0" y="6" width="31" height="42.5" filterUnits="userSpaceOnUse" color-interpolation-filters="sRGB">
<feFlood flood-opacity="0" result="BackgroundImageFix"/>
<feColorMatrix in="SourceAlpha" type="matrix" values="0 0 0 0 0 0 0 0 0 0 0 0 0 0 0 0 0 0 127 0" result="hardAlpha"/>
<feOffset dy="4"/>
<feGaussianBlur stdDeviation="2"/>
<feComposite in2="hardAlpha" operator="out"/>
<feColorMatrix type="matrix" values="0 0 0 0 0 0 0 0 0 0 0 0 0 0 0 0 0 0 0.25 0"/>
<feBlend mode="normal" in2="BackgroundImageFix" result="effect1_dropShadow_1989_17"/>
<feBlend mode="normal" in="SourceGraphic" in2="effect1_dropShadow_1989_17" result="shape"/>
</filter>
<clipPath id="clip0_1989_17">
<rect width="15" height="15" fill="white" transform="translate(8 12)"/>
</clipPath>
<clipPath id="clip1_1989_17">
<rect width="16" height="16" fill="white" transform="translate(18)"/>
</clipPath>
</defs>
</svg>
