<svg width="33" height="50" viewBox="0 0 33 50" fill="none" xmlns="http://www.w3.org/2000/svg">
<g filter="url(#filter0_d_24_573)">
<mask id="path-1-inside-1_24_573" fill="white">
<path fill-rule="evenodd" clip-rule="evenodd" d="M25.3589 24.4238C26.4007 22.6936 27 20.6668 27 18.5C27 12.1487 21.8513 7 15.5 7C9.14873 7 4 12.1487 4 18.5C4 20.6658 4.59869 22.6917 5.63959 24.4213L15.5 41.5L25.3589 24.4238Z"/>
</mask>
<path fill-rule="evenodd" clip-rule="evenodd" d="M25.3589 24.4238C26.4007 22.6936 27 20.6668 27 18.5C27 12.1487 21.8513 7 15.5 7C9.14873 7 4 12.1487 4 18.5C4 20.6658 4.59869 22.6917 5.63959 24.4213L15.5 41.5L25.3589 24.4238Z" fill="#76DE65"/>
<path d="M25.3589 24.4238L24.5022 23.908L24.4975 23.9158L24.4929 23.9238L25.3589 24.4238ZM5.63959 24.4213L6.50561 23.9213L6.50108 23.9135L6.4964 23.9057L5.63959 24.4213ZM15.5 41.5L14.6339 42L15.5 43.5L16.366 42L15.5 41.5ZM26 18.5C26 20.48 25.4529 22.3291 24.5022 23.908L26.2156 24.9397C27.3486 23.0581 28 20.8536 28 18.5H26ZM15.5 8C21.299 8 26 12.701 26 18.5H28C28 11.5964 22.4036 6 15.5 6V8ZM5 18.5C5 12.701 9.70101 8 15.5 8V6C8.59644 6 3 11.5964 3 18.5H5ZM6.4964 23.9057C5.54656 22.3274 5 20.479 5 18.5H3C3 20.8525 3.65082 23.056 4.78278 24.937L6.4964 23.9057ZM16.366 41L6.50561 23.9213L4.77356 24.9213L14.6339 42L16.366 41ZM24.4929 23.9238L14.6339 41L16.366 42L26.2249 24.9238L24.4929 23.9238Z" fill="white" mask="url(#path-1-inside-1_24_573)"/>
</g>
<circle cx="25" cy="8" r="7.5" fill="#528DFF" stroke="white"/>
<path d="M27.97 4.97C28.1109 4.83589 28.2983 4.76175 28.4928 4.76322C28.6873 4.76469 28.8736 4.84166 29.0125 4.97789C29.1513 5.11412 29.2317 5.29895 29.2369 5.49338C29.242 5.68781 29.1714 5.87663 29.04 6.02L25.05 11.01C24.9814 11.0839 24.8986 11.1432 24.8065 11.1844C24.7145 11.2255 24.6151 11.2477 24.5143 11.2496C24.4134 11.2514 24.3133 11.233 24.2198 11.1952C24.1262 11.1575 24.0413 11.1013 23.97 11.03L21.324 8.384C21.2503 8.31534 21.1912 8.23254 21.1502 8.14054C21.1092 8.04854 21.0872 7.94923 21.0854 7.84852C21.0836 7.74782 21.1022 7.64779 21.1399 7.5544C21.1776 7.46102 21.2337 7.37618 21.305 7.30496C21.3762 7.23374 21.461 7.1776 21.5544 7.13988C21.6478 7.10216 21.7478 7.08363 21.8485 7.08541C21.9492 7.08719 22.0485 7.10923 22.1405 7.15022C22.2325 7.19121 22.3153 7.25031 22.384 7.324L24.478 9.417L27.951 4.992L27.97 4.97Z" fill="white"/>
<defs>
<filter id="filter0_d_24_573" x="0" y="7" width="31" height="42.5" filterUnits="userSpaceOnUse" color-interpolation-filters="sRGB">
<feFlood flood-opacity="0" result="BackgroundImageFix"/>
<feColorMatrix in="SourceAlpha" type="matrix" values="0 0 0 0 0 0 0 0 0 0 0 0 0 0 0 0 0 0 127 0" result="hardAlpha"/>
<feOffset dy="4"/>
<feGaussianBlur stdDeviation="2"/>
<feComposite in2="hardAlpha" operator="out"/>
<feColorMatrix type="matrix" values="0 0 0 0 0 0 0 0 0 0 0 0 0 0 0 0 0 0 0.25 0"/>
<feBlend mode="normal" in2="BackgroundImageFix" result="effect1_dropShadow_24_573"/>
<feBlend mode="normal" in="SourceGraphic" in2="effect1_dropShadow_24_573" result="shape"/>
</filter>
</defs>
</svg>
