<svg width="33" height="50" viewBox="0 0 33 50" fill="none" xmlns="http://www.w3.org/2000/svg">
<g filter="url(#filter0_d_24_574)">
<mask id="path-1-inside-1_24_574" fill="white">
<path fill-rule="evenodd" clip-rule="evenodd" d="M25.3589 24.4238C26.4007 22.6936 27 20.6668 27 18.5C27 12.1487 21.8513 7 15.5 7C9.14873 7 4 12.1487 4 18.5C4 20.6658 4.59869 22.6917 5.63959 24.4213L15.5 41.5L25.3589 24.4238Z"/>
</mask>
<path fill-rule="evenodd" clip-rule="evenodd" d="M25.3589 24.4238C26.4007 22.6936 27 20.6668 27 18.5C27 12.1487 21.8513 7 15.5 7C9.14873 7 4 12.1487 4 18.5C4 20.6658 4.59869 22.6917 5.63959 24.4213L15.5 41.5L25.3589 24.4238Z" fill="#76DE65"/>
<path d="M25.3589 24.4238L24.5022 23.908L24.4975 23.9158L24.4929 23.9238L25.3589 24.4238ZM5.63959 24.4213L6.50561 23.9213L6.50108 23.9135L6.4964 23.9057L5.63959 24.4213ZM15.5 41.5L14.6339 42L15.5 43.5L16.366 42L15.5 41.5ZM26 18.5C26 20.48 25.4529 22.3291 24.5022 23.908L26.2156 24.9397C27.3486 23.0581 28 20.8536 28 18.5H26ZM15.5 8C21.299 8 26 12.701 26 18.5H28C28 11.5964 22.4036 6 15.5 6V8ZM5 18.5C5 12.701 9.70101 8 15.5 8V6C8.59644 6 3 11.5964 3 18.5H5ZM6.4964 23.9057C5.54656 22.3274 5 20.479 5 18.5H3C3 20.8525 3.65082 23.056 4.78278 24.937L6.4964 23.9057ZM16.366 41L6.50561 23.9213L4.77356 24.9213L14.6339 42L16.366 41ZM24.4929 23.9238L14.6339 41L16.366 42L26.2249 24.9238L24.4929 23.9238Z" fill="white" mask="url(#path-1-inside-1_24_574)"/>
</g>
<circle cx="25" cy="8" r="7.5" fill="#FF5252" stroke="white"/>
<g clip-path="url(#clip0_24_574)">
<path d="M24.002 11C24.002 10.8687 24.0279 10.7386 24.0781 10.6173C24.1284 10.496 24.202 10.3858 24.2949 10.2929C24.3878 10.2 24.498 10.1264 24.6193 10.0761C24.7406 10.0259 24.8707 10 25.002 10C25.1333 10 25.2634 10.0259 25.3847 10.0761C25.506 10.1264 25.6162 10.2 25.7091 10.2929C25.802 10.3858 25.8756 10.496 25.9259 10.6173C25.9761 10.7386 26.002 10.8687 26.002 11C26.002 11.2652 25.8966 11.5196 25.7091 11.7071C25.5216 11.8946 25.2672 12 25.002 12C24.7368 12 24.4824 11.8946 24.2949 11.7071C24.1074 11.5196 24.002 11.2652 24.002 11ZM24.1 4.995C24.0867 4.86884 24.1 4.74129 24.1392 4.62063C24.1784 4.49997 24.2425 4.38888 24.3273 4.29459C24.4122 4.2003 24.5159 4.1249 24.6318 4.07329C24.7477 4.02167 24.8731 3.995 25 3.995C25.1269 3.995 25.2523 4.02167 25.3682 4.07329C25.4841 4.1249 25.5878 4.2003 25.6727 4.29459C25.7575 4.38888 25.8216 4.49997 25.8608 4.62063C25.9 4.74129 25.9133 4.86884 25.9 4.995L25.55 8.502C25.5358 8.63797 25.4717 8.76384 25.3701 8.85534C25.2686 8.94684 25.1367 8.99748 25 8.99748C24.8633 8.99748 24.7314 8.94684 24.6299 8.85534C24.5283 8.76384 24.4642 8.63797 24.45 8.502L24.1 4.995Z" fill="white"/>
</g>
<defs>
<filter id="filter0_d_24_574" x="0" y="7" width="31" height="42.5" filterUnits="userSpaceOnUse" color-interpolation-filters="sRGB">
<feFlood flood-opacity="0" result="BackgroundImageFix"/>
<feColorMatrix in="SourceAlpha" type="matrix" values="0 0 0 0 0 0 0 0 0 0 0 0 0 0 0 0 0 0 127 0" result="hardAlpha"/>
<feOffset dy="4"/>
<feGaussianBlur stdDeviation="2"/>
<feComposite in2="hardAlpha" operator="out"/>
<feColorMatrix type="matrix" values="0 0 0 0 0 0 0 0 0 0 0 0 0 0 0 0 0 0 0.25 0"/>
<feBlend mode="normal" in2="BackgroundImageFix" result="effect1_dropShadow_24_574"/>
<feBlend mode="normal" in="SourceGraphic" in2="effect1_dropShadow_24_574" result="shape"/>
</filter>
<clipPath id="clip0_24_574">
<rect width="16" height="16" fill="white" transform="translate(17)"/>
</clipPath>
</defs>
</svg>
