<svg width="31" height="43" viewBox="0 0 31 43" fill="none" xmlns="http://www.w3.org/2000/svg">
<g filter="url(#filter0_d_1334_15)">
<mask id="path-1-inside-1_1334_15" fill="white">
<path fill-rule="evenodd" clip-rule="evenodd" d="M25.3589 17.4238C26.4007 15.6936 27 13.6668 27 11.5C27 5.14873 21.8513 0 15.5 0C9.14873 0 4 5.14873 4 11.5C4 13.6658 4.59869 15.6917 5.63959 17.4213L15.5 34.5L25.3589 17.4238Z"/>
</mask>
<path fill-rule="evenodd" clip-rule="evenodd" d="M25.3589 17.4238C26.4007 15.6936 27 13.6668 27 11.5C27 5.14873 21.8513 0 15.5 0C9.14873 0 4 5.14873 4 11.5C4 13.6658 4.59869 15.6917 5.63959 17.4213L15.5 34.5L25.3589 17.4238Z" fill="#5966AB"/>
<path d="M25.3589 17.4238L24.5022 16.908L24.4975 16.9158L24.4929 16.9238L25.3589 17.4238ZM5.63959 17.4213L6.50561 16.9213L6.50108 16.9135L6.4964 16.9057L5.63959 17.4213ZM15.5 34.5L14.6339 35L15.5 36.5L16.366 35L15.5 34.5ZM26 11.5C26 13.48 25.4529 15.3291 24.5022 16.908L26.2156 17.9397C27.3486 16.0581 28 13.8536 28 11.5H26ZM15.5 1C21.299 1 26 5.70101 26 11.5H28C28 4.59644 22.4036 -1 15.5 -1V1ZM5 11.5C5 5.70101 9.70101 1 15.5 1V-1C8.59644 -1 3 4.59644 3 11.5H5ZM6.4964 16.9057C5.54656 15.3274 5 13.479 5 11.5H3C3 13.8525 3.65082 16.056 4.78278 17.937L6.4964 16.9057ZM16.366 34L6.50561 16.9213L4.77356 17.9213L14.6339 35L16.366 34ZM24.4929 16.9238L14.6339 34L16.366 35L26.2249 17.9238L24.4929 16.9238Z" fill="white" mask="url(#path-1-inside-1_1334_15)"/>
</g>
<defs>
<filter id="filter0_d_1334_15" x="0" y="0" width="31" height="42.5" filterUnits="userSpaceOnUse" color-interpolation-filters="sRGB">
<feFlood flood-opacity="0" result="BackgroundImageFix"/>
<feColorMatrix in="SourceAlpha" type="matrix" values="0 0 0 0 0 0 0 0 0 0 0 0 0 0 0 0 0 0 127 0" result="hardAlpha"/>
<feOffset dy="4"/>
<feGaussianBlur stdDeviation="2"/>
<feComposite in2="hardAlpha" operator="out"/>
<feColorMatrix type="matrix" values="0 0 0 0 0 0 0 0 0 0 0 0 0 0 0 0 0 0 0.25 0"/>
<feBlend mode="normal" in2="BackgroundImageFix" result="effect1_dropShadow_1334_15"/>
<feBlend mode="normal" in="SourceGraphic" in2="effect1_dropShadow_1334_15" result="shape"/>
</filter>
</defs>
</svg>
