<svg width="31" height="43" viewBox="0 0 31 43" fill="none" xmlns="http://www.w3.org/2000/svg">
<g filter="url(#filter0_d_24_237)">
<mask id="path-1-inside-1_24_237" fill="white">
<path fill-rule="evenodd" clip-rule="evenodd" d="M25.3589 17.4238C26.4007 15.6936 27 13.6668 27 11.5C27 5.14873 21.8513 0 15.5 0C9.14873 0 4 5.14873 4 11.5C4 13.6658 4.59869 15.6917 5.63959 17.4213L15.5 34.5L25.3589 17.4238Z"/>
</mask>
<path fill-rule="evenodd" clip-rule="evenodd" d="M25.3589 17.4238C26.4007 15.6936 27 13.6668 27 11.5C27 5.14873 21.8513 0 15.5 0C9.14873 0 4 5.14873 4 11.5C4 13.6658 4.59869 15.6917 5.63959 17.4213L15.5 34.5L25.3589 17.4238Z" fill="#FE8686"/>
<path d="M25.3589 17.4238L24.5022 16.908L24.4975 16.9158L24.4929 16.9238L25.3589 17.4238ZM5.63959 17.4213L6.50561 16.9213L6.50108 16.9135L6.4964 16.9057L5.63959 17.4213ZM15.5 34.5L14.6339 35L15.5 36.5L16.366 35L15.5 34.5ZM26 11.5C26 13.48 25.4529 15.3291 24.5022 16.908L26.2156 17.9397C27.3486 16.0581 28 13.8536 28 11.5H26ZM15.5 1C21.299 1 26 5.70101 26 11.5H28C28 4.59644 22.4036 -1 15.5 -1V1ZM5 11.5C5 5.70101 9.70101 1 15.5 1V-1C8.59644 -1 3 4.59644 3 11.5H5ZM6.4964 16.9057C5.54656 15.3274 5 13.479 5 11.5H3C3 13.8525 3.65082 16.056 4.78278 17.937L6.4964 16.9057ZM16.366 34L6.50561 16.9213L4.77356 17.9213L14.6339 35L16.366 34ZM24.4929 16.9238L14.6339 34L16.366 35L26.2249 17.9238L24.4929 16.9238Z" fill="white" mask="url(#path-1-inside-1_24_237)"/>
<g clip-path="url(#clip0_24_237)">
<path d="M18.5478 6.06375C18.6396 6.11694 18.7106 6.19968 18.7492 6.29844C18.7879 6.3972 18.7919 6.50616 18.7606 6.6075L17.0722 12.0937H20.1875C20.2791 12.0937 20.3686 12.1205 20.4451 12.1708C20.5216 12.221 20.5817 12.2926 20.618 12.3767C20.6543 12.4607 20.6652 12.5536 20.6493 12.6437C20.6335 12.7339 20.5916 12.8174 20.5288 12.8841L13.0288 20.8528C12.9562 20.93 12.8596 20.9803 12.7548 20.9956C12.65 21.0108 12.5431 20.9901 12.4515 20.9368C12.36 20.8835 12.2891 20.8008 12.2506 20.7021C12.2121 20.6035 12.2081 20.4947 12.2394 20.3934L13.9278 14.9062H10.8125C10.721 14.9063 10.6314 14.8795 10.5549 14.8292C10.4784 14.779 10.4183 14.7074 10.382 14.6233C10.3457 14.5393 10.3348 14.4464 10.3507 14.3563C10.3665 14.2661 10.4084 14.1825 10.4713 14.1159L17.9713 6.14719C18.0437 6.07012 18.1402 6.01984 18.2448 6.00453C18.3495 5.98921 18.4563 6.00975 18.5478 6.06281V6.06375Z" fill="#FFF500"/>
</g>
</g>
<defs>
<filter id="filter0_d_24_237" x="0" y="0" width="31" height="42.5" filterUnits="userSpaceOnUse" color-interpolation-filters="sRGB">
<feFlood flood-opacity="0" result="BackgroundImageFix"/>
<feColorMatrix in="SourceAlpha" type="matrix" values="0 0 0 0 0 0 0 0 0 0 0 0 0 0 0 0 0 0 127 0" result="hardAlpha"/>
<feOffset dy="4"/>
<feGaussianBlur stdDeviation="2"/>
<feComposite in2="hardAlpha" operator="out"/>
<feColorMatrix type="matrix" values="0 0 0 0 0 0 0 0 0 0 0 0 0 0 0 0 0 0 0.25 0"/>
<feBlend mode="normal" in2="BackgroundImageFix" result="effect1_dropShadow_24_237"/>
<feBlend mode="normal" in="SourceGraphic" in2="effect1_dropShadow_24_237" result="shape"/>
</filter>
<clipPath id="clip0_24_237">
<rect width="15" height="15" fill="white" transform="translate(8 6)"/>
</clipPath>
</defs>
</svg>
