<svg width="122" height="128" viewBox="0 0 122 128" fill="none" xmlns="http://www.w3.org/2000/svg">
<rect width="122" height="128" fill="white"/>
<g filter="url(#filter0_d_4003_138)">
<mask id="path-1-inside-1_4003_138" fill="white">
<path d="M20.5 20C26.8513 20 32 25.1487 32 31.5C32 33.5953 31.437 35.5582 30.458 37.25H30.459L20.5 54.5L10.541 37.25H10.542C9.56297 35.5582 9 33.5953 9 31.5C9 25.1487 14.1487 20 20.5 20Z"/>
</mask>
<path d="M20.5 20C26.8513 20 32 25.1487 32 31.5C32 33.5953 31.437 35.5582 30.458 37.25H30.459L20.5 54.5L10.541 37.25H10.542C9.56297 35.5582 9 33.5953 9 31.5C9 25.1487 14.1487 20 20.5 20Z" fill="#76DE65"/>
<path d="M30.458 37.25L29.5925 36.7491L28.724 38.25H30.458V37.25ZM30.459 37.25L31.325 37.75L32.191 36.25H30.459V37.25ZM20.5 54.5L19.634 55L20.5 56.5L21.366 55L20.5 54.5ZM10.541 37.25V36.25H8.80899L9.67498 37.75L10.541 37.25ZM10.542 37.25V38.25H12.276L11.4075 36.7491L10.542 37.25ZM20.5 20V21C26.299 21 31 25.701 31 31.5H32H33C33 24.5964 27.4036 19 20.5 19V20ZM32 31.5H31C31 33.4137 30.4863 35.2046 29.5925 36.7491L30.458 37.25L31.3235 37.7509C32.3878 35.9118 33 33.7768 33 31.5H32ZM30.458 37.25V38.25H30.459V37.25V36.25H30.458V37.25ZM30.459 37.25L29.593 36.75L19.634 54L20.5 54.5L21.366 55L31.325 37.75L30.459 37.25ZM20.5 54.5L21.366 54L11.407 36.75L10.541 37.25L9.67498 37.75L19.634 55L20.5 54.5ZM10.541 37.25V38.25H10.542V37.25V36.25H10.541V37.25ZM10.542 37.25L11.4075 36.7491C10.5137 35.2046 10 33.4137 10 31.5H9H8C8 33.7768 8.61223 35.9118 9.67646 37.7509L10.542 37.25ZM9 31.5H10C10 25.701 14.701 21 20.5 21V20V19C13.5964 19 8 24.5964 8 31.5H9Z" fill="white" mask="url(#path-1-inside-1_4003_138)"/>
</g>
<path d="M9.61725 12.304H10.2733V13.392H9.61725V12.304ZM6.68125 11.952H13.2173V12.488H6.68125V11.952ZM9.61725 8.368H10.2733V9.344H9.61725V8.368ZM9.58525 9.424H10.1693V9.536C10.1693 9.83467 10.0919 10.1013 9.93725 10.336C9.78792 10.5707 9.57725 10.7733 9.30525 10.944C9.03858 11.1147 8.72925 11.2533 8.37725 11.36C8.03058 11.4613 7.65992 11.5333 7.26525 11.576L7.05725 11.064C7.40925 11.032 7.73725 10.9733 8.04125 10.888C8.34525 10.8027 8.61192 10.696 8.84125 10.568C9.07592 10.4347 9.25725 10.2827 9.38525 10.112C9.51858 9.936 9.58525 9.744 9.58525 9.536V9.424ZM9.72925 9.424H10.3053V9.536C10.3053 9.744 10.3693 9.936 10.4973 10.112C10.6306 10.2827 10.8119 10.4347 11.0413 10.568C11.2759 10.696 11.5453 10.8027 11.8493 10.888C12.1533 10.9733 12.4813 11.032 12.8333 11.064L12.6333 11.576C12.2386 11.5333 11.8653 11.4613 11.5133 11.36C11.1666 11.2533 10.8573 11.1147 10.5853 10.944C10.3186 10.7733 10.1079 10.5707 9.95325 10.336C9.80392 10.1013 9.72925 9.83467 9.72925 9.536V9.424ZM7.35325 9.088H12.5533V9.624H7.35325V9.088ZM9.94525 13.208C10.7239 13.208 11.3293 13.312 11.7613 13.52C12.1986 13.7227 12.4173 14.0187 12.4173 14.408C12.4173 14.7973 12.1986 15.0933 11.7613 15.296C11.3293 15.504 10.7239 15.608 9.94525 15.608C9.16658 15.608 8.55858 15.504 8.12125 15.296C7.68392 15.0933 7.46525 14.7973 7.46525 14.408C7.46525 14.0187 7.68392 13.7227 8.12125 13.52C8.55858 13.312 9.16658 13.208 9.94525 13.208ZM9.94525 13.712C9.36925 13.712 8.92392 13.7733 8.60925 13.896C8.29458 14.0133 8.13725 14.184 8.13725 14.408C8.13725 14.632 8.29458 14.8053 8.60925 14.928C8.92392 15.0453 9.36925 15.104 9.94525 15.104C10.5159 15.104 10.9586 15.0453 11.2733 14.928C11.5933 14.8053 11.7533 14.632 11.7533 14.408C11.7533 14.184 11.5933 14.0133 11.2733 13.896C10.9586 13.7733 10.5159 13.712 9.94525 13.712ZM17.8726 10.384H19.7046V10.928H17.8726V10.384ZM19.3286 8.392H19.9926V13.696H19.3286V8.392ZM15.3766 14.92H20.1926V15.464H15.3766V14.92ZM15.3766 13.224H16.0326V15.192H15.3766V13.224ZM15.8806 9.288H16.4246V9.872C16.4246 10.3093 16.3393 10.7227 16.1686 11.112C16.0033 11.496 15.7686 11.832 15.4646 12.12C15.1606 12.4027 14.8086 12.6213 14.4086 12.776L14.0646 12.24C14.3313 12.144 14.574 12.016 14.7926 11.856C15.0166 11.696 15.2113 11.512 15.3766 11.304C15.542 11.096 15.6673 10.8693 15.7526 10.624C15.838 10.3787 15.8806 10.128 15.8806 9.872V9.288ZM16.0086 9.288H16.5526V9.872C16.5526 10.1813 16.6246 10.4827 16.7686 10.776C16.9126 11.0693 17.118 11.3307 17.3846 11.56C17.6513 11.784 17.958 11.9573 18.3046 12.08L17.9686 12.608C17.574 12.464 17.23 12.256 16.9366 11.984C16.6433 11.7067 16.414 11.3867 16.2486 11.024C16.0886 10.6613 16.0086 10.2773 16.0086 9.872V9.288ZM14.2726 8.976H18.1366V9.52H14.2726V8.976ZM26.296 8.384H26.96V15.616H26.296V8.384ZM26.784 11.32H28.112V11.872H26.784V11.32ZM24.448 9.16H25.096C25.096 9.848 24.984 10.5067 24.76 11.136C24.536 11.76 24.184 12.3387 23.704 12.872C23.224 13.4 22.592 13.8587 21.808 14.248L21.44 13.736C22.112 13.4 22.6693 13.008 23.112 12.56C23.56 12.1067 23.8933 11.6053 24.112 11.056C24.336 10.5013 24.448 9.904 24.448 9.264V9.16ZM21.776 9.16H24.784V9.712H21.776V9.16ZM29.6474 10.392H34.5514V10.936H29.6474V10.392ZM29.6474 8.528H30.3034V10.632H29.6474V8.528ZM28.7594 11.776H35.3034V12.32H28.7594V11.776ZM32.0234 12.96C32.7967 12.96 33.402 13.0747 33.8394 13.304C34.2767 13.5333 34.4954 13.8587 34.4954 14.28C34.4954 14.696 34.2767 15.0187 33.8394 15.248C33.402 15.4773 32.7967 15.592 32.0234 15.592C31.25 15.592 30.642 15.4773 30.1994 15.248C29.762 15.0187 29.5434 14.696 29.5434 14.28C29.5434 13.8587 29.762 13.5333 30.1994 13.304C30.642 13.0747 31.25 12.96 32.0234 12.96ZM32.0154 13.488C31.642 13.488 31.3194 13.52 31.0474 13.584C30.7807 13.6427 30.5754 13.7307 30.4314 13.848C30.2874 13.9653 30.2154 14.1093 30.2154 14.28C30.2154 14.4453 30.2874 14.5893 30.4314 14.712C30.5754 14.8293 30.7807 14.92 31.0474 14.984C31.3194 15.0427 31.642 15.072 32.0154 15.072C32.3994 15.072 32.7247 15.0427 32.9914 14.984C33.2634 14.92 33.4714 14.8293 33.6154 14.712C33.7594 14.5893 33.8314 14.4453 33.8314 14.28C33.8314 14.1093 33.7594 13.9653 33.6154 13.848C33.4714 13.7307 33.2634 13.6427 32.9914 13.584C32.7247 13.52 32.3994 13.488 32.0154 13.488Z" fill="black"/>
<g filter="url(#filter1_d_4003_138)">
<mask id="path-4-inside-2_4003_138" fill="white">
<path d="M19.5 74C25.8513 74 31 79.1487 31 85.5C31 87.5953 30.437 89.5582 29.458 91.25H29.459L19.5 108.5L9.54102 91.25H9.54199C8.56297 89.5582 8 87.5953 8 85.5C8 79.1487 13.1487 74 19.5 74Z"/>
</mask>
<path d="M19.5 74C25.8513 74 31 79.1487 31 85.5C31 87.5953 30.437 89.5582 29.458 91.25H29.459L19.5 108.5L9.54102 91.25H9.54199C8.56297 89.5582 8 87.5953 8 85.5C8 79.1487 13.1487 74 19.5 74Z" fill="#76DE65"/>
<path d="M29.458 91.25L28.5925 90.7491L27.724 92.25H29.458V91.25ZM29.459 91.25L30.325 91.75L31.191 90.25H29.459V91.25ZM19.5 108.5L18.634 109L19.5 110.5L20.366 109L19.5 108.5ZM9.54102 91.25V90.25H7.80899L8.67498 91.75L9.54102 91.25ZM9.54199 91.25V92.25H11.276L10.4075 90.7491L9.54199 91.25ZM19.5 74V75C25.299 75 30 79.701 30 85.5H31H32C32 78.5964 26.4036 73 19.5 73V74ZM31 85.5H30C30 87.4137 29.4863 89.2046 28.5925 90.7491L29.458 91.25L30.3235 91.7509C31.3878 89.9118 32 87.7768 32 85.5H31ZM29.458 91.25V92.25H29.459V91.25V90.25H29.458V91.25ZM29.459 91.25L28.593 90.75L18.634 108L19.5 108.5L20.366 109L30.325 91.75L29.459 91.25ZM19.5 108.5L20.366 108L10.407 90.75L9.54102 91.25L8.67498 91.75L18.634 109L19.5 108.5ZM9.54102 91.25V92.25H9.54199V91.25V90.25H9.54102V91.25ZM9.54199 91.25L10.4075 90.7491C9.51371 89.2046 9 87.4137 9 85.5H8H7C7 87.7768 7.61223 89.9118 8.67646 91.7509L9.54199 91.25ZM8 85.5H9C9 79.701 13.701 75 19.5 75V74V73C12.5964 73 7 78.5964 7 85.5H8Z" fill="white" mask="url(#path-4-inside-2_4003_138)"/>
</g>
<circle cx="29" cy="75" r="7.5" fill="#528DFF" stroke="white"/>
<path d="M31.97 71.97C32.1109 71.8359 32.2983 71.7617 32.4928 71.7632C32.6873 71.7647 32.8736 71.8417 33.0125 71.9779C33.1513 72.1141 33.2317 72.2989 33.2369 72.4934C33.242 72.6878 33.1714 72.8766 33.04 73.02L29.05 78.01C28.9814 78.0839 28.8986 78.1432 28.8065 78.1844C28.7145 78.2255 28.6151 78.2477 28.5143 78.2496C28.4134 78.2514 28.3133 78.233 28.2198 78.1952C28.1262 78.1575 28.0413 78.1013 27.97 78.03L25.324 75.384C25.2503 75.3153 25.1912 75.2325 25.1502 75.1405C25.1092 75.0485 25.0872 74.9492 25.0854 74.8485C25.0836 74.7478 25.1022 74.6478 25.1399 74.5544C25.1776 74.461 25.2337 74.3762 25.305 74.305C25.3762 74.2337 25.461 74.1776 25.5544 74.1399C25.6478 74.1022 25.7478 74.0836 25.8485 74.0854C25.9492 74.0872 26.0485 74.1092 26.1405 74.1502C26.2325 74.1912 26.3153 74.2503 26.384 74.324L28.478 76.417L31.951 71.992L31.97 71.97Z" fill="white"/>
<path d="M9.93725 116H12.1293V116.544H9.93725V116ZM9.93725 118.288H12.1293V118.832H9.93725V118.288ZM8.60925 114.944C8.96125 114.944 9.27325 115.048 9.54525 115.256C9.81725 115.459 10.0279 115.749 10.1773 116.128C10.3319 116.507 10.4093 116.952 10.4093 117.464C10.4093 117.976 10.3319 118.421 10.1773 118.8C10.0279 119.179 9.81725 119.472 9.54525 119.68C9.27325 119.888 8.96125 119.992 8.60925 119.992C8.26258 119.992 7.95058 119.888 7.67325 119.68C7.40125 119.472 7.18792 119.179 7.03325 118.8C6.88392 118.421 6.80925 117.976 6.80925 117.464C6.80925 116.952 6.88392 116.507 7.03325 116.128C7.18792 115.749 7.40125 115.459 7.67325 115.256C7.95058 115.048 8.26258 114.944 8.60925 114.944ZM8.60925 115.536C8.37992 115.536 8.17725 115.616 8.00125 115.776C7.82525 115.931 7.68658 116.155 7.58525 116.448C7.48925 116.736 7.44125 117.075 7.44125 117.464C7.44125 117.853 7.48925 118.195 7.58525 118.488C7.68658 118.776 7.82525 119 8.00125 119.16C8.17725 119.32 8.37992 119.4 8.60925 119.4C8.84392 119.4 9.04925 119.32 9.22525 119.16C9.40125 119 9.53725 118.776 9.63325 118.488C9.73458 118.195 9.78525 117.853 9.78525 117.464C9.78525 117.075 9.73458 116.736 9.63325 116.448C9.53725 116.155 9.40125 115.931 9.22525 115.776C9.04925 115.616 8.84392 115.536 8.60925 115.536ZM11.9773 114.384H12.6333V121.632H11.9773V114.384ZM15.7206 118.864H16.4006V121.624H15.7206V118.864ZM18.2086 118.864H18.8806V121.624H18.2086V118.864ZM14.0326 118.504H20.5926V119.048H14.0326V118.504ZM17.2966 114.672C17.8033 114.672 18.246 114.739 18.6246 114.872C19.0033 115 19.2993 115.181 19.5126 115.416C19.726 115.651 19.8326 115.931 19.8326 116.256C19.8326 116.571 19.726 116.848 19.5126 117.088C19.2993 117.323 19.0033 117.504 18.6246 117.632C18.246 117.76 17.8033 117.824 17.2966 117.824C16.8006 117.824 16.3606 117.76 15.9766 117.632C15.598 117.504 15.302 117.323 15.0886 117.088C14.8753 116.848 14.7686 116.571 14.7686 116.256C14.7686 115.931 14.8753 115.651 15.0886 115.416C15.302 115.181 15.598 115 15.9766 114.872C16.3606 114.739 16.8006 114.672 17.2966 114.672ZM17.2966 115.208C16.934 115.208 16.6113 115.251 16.3286 115.336C16.0513 115.421 15.8353 115.544 15.6806 115.704C15.526 115.859 15.4486 116.043 15.4486 116.256C15.4486 116.464 15.526 116.648 15.6806 116.808C15.8353 116.963 16.0513 117.083 16.3286 117.168C16.6113 117.248 16.934 117.288 17.2966 117.288C17.67 117.288 17.9953 117.248 18.2726 117.168C18.55 117.083 18.766 116.963 18.9206 116.808C19.0753 116.648 19.1526 116.464 19.1526 116.256C19.1526 116.043 19.0753 115.859 18.9206 115.704C18.766 115.544 18.55 115.421 18.2726 115.336C17.9953 115.251 17.67 115.208 17.2966 115.208ZM24.28 116.136H25.696V116.68H24.28V116.136ZM24.28 118.336H25.696V118.888H24.28V118.336ZM26.912 114.384H27.552V121.624H26.912V114.384ZM25.488 114.536H26.12V121.256H25.488V114.536ZM23.024 114.992C23.3387 114.992 23.6107 115.093 23.84 115.296C24.0747 115.499 24.256 115.789 24.384 116.168C24.512 116.547 24.576 116.992 24.576 117.504C24.576 118.021 24.512 118.469 24.384 118.848C24.256 119.227 24.0747 119.52 23.84 119.728C23.6107 119.931 23.3387 120.032 23.024 120.032C22.72 120.032 22.4507 119.931 22.216 119.728C21.9867 119.52 21.808 119.227 21.68 118.848C21.552 118.469 21.488 118.021 21.488 117.504C21.488 116.992 21.552 116.547 21.68 116.168C21.808 115.789 21.9867 115.499 22.216 115.296C22.4507 115.093 22.72 114.992 23.024 114.992ZM23.024 115.608C22.8373 115.608 22.672 115.685 22.528 115.84C22.3893 115.995 22.2827 116.213 22.208 116.496C22.1333 116.779 22.096 117.115 22.096 117.504C22.096 117.893 22.1333 118.232 22.208 118.52C22.2827 118.803 22.3893 119.021 22.528 119.176C22.672 119.331 22.8373 119.408 23.024 119.408C23.2213 119.408 23.3893 119.331 23.528 119.176C23.6667 119.021 23.7733 118.803 23.848 118.52C23.928 118.232 23.968 117.893 23.968 117.504C23.968 117.115 23.928 116.779 23.848 116.496C23.7733 116.213 23.6667 115.995 23.528 115.84C23.3893 115.685 23.2213 115.608 23.024 115.608ZM30.5194 114.76H31.0634V115.496C31.0634 115.96 30.9807 116.392 30.8154 116.792C30.6554 117.192 30.426 117.541 30.1274 117.84C29.8287 118.133 29.4794 118.357 29.0794 118.512L28.7194 117.984C29.0874 117.851 29.4047 117.659 29.6714 117.408C29.9434 117.157 30.1514 116.869 30.2954 116.544C30.4447 116.213 30.5194 115.864 30.5194 115.496V114.76ZM30.6394 114.76H31.1754V115.552C31.1754 115.792 31.218 116.029 31.3034 116.264C31.3887 116.493 31.5087 116.707 31.6634 116.904C31.8234 117.101 32.01 117.277 32.2234 117.432C32.4367 117.581 32.674 117.701 32.9354 117.792L32.5834 118.312C32.1994 118.168 31.8607 117.96 31.5674 117.688C31.274 117.411 31.0447 117.091 30.8794 116.728C30.7194 116.36 30.6394 115.968 30.6394 115.552V114.76ZM33.7114 114.384H34.3754V118.776H33.7114V114.384ZM34.1914 116.256H35.4394V116.816H34.1914V116.256ZM32.0714 118.968C32.562 118.968 32.9834 119.021 33.3354 119.128C33.6927 119.229 33.9674 119.379 34.1594 119.576C34.3514 119.773 34.4474 120.011 34.4474 120.288C34.4474 120.565 34.3514 120.803 34.1594 121C33.9674 121.197 33.6927 121.347 33.3354 121.448C32.9834 121.555 32.562 121.608 32.0714 121.608C31.5807 121.608 31.1567 121.555 30.7994 121.448C30.442 121.347 30.1674 121.197 29.9754 121C29.7834 120.803 29.6874 120.565 29.6874 120.288C29.6874 120.011 29.7834 119.773 29.9754 119.576C30.1674 119.379 30.442 119.229 30.7994 119.128C31.1567 119.021 31.5807 118.968 32.0714 118.968ZM32.0714 119.496C31.714 119.496 31.4047 119.528 31.1434 119.592C30.8874 119.656 30.69 119.747 30.5514 119.864C30.4127 119.981 30.3434 120.123 30.3434 120.288C30.3434 120.459 30.4127 120.603 30.5514 120.72C30.69 120.837 30.8874 120.928 31.1434 120.992C31.4047 121.051 31.714 121.08 32.0714 121.08C32.4287 121.08 32.7354 121.051 32.9914 120.992C33.2474 120.928 33.4447 120.837 33.5834 120.72C33.722 120.603 33.7914 120.459 33.7914 120.288C33.7914 120.123 33.722 119.981 33.5834 119.864C33.4447 119.747 33.2474 119.656 32.9914 119.592C32.7354 119.528 32.4287 119.496 32.0714 119.496Z" fill="black"/>
<g filter="url(#filter2_d_4003_138)">
<mask id="path-9-inside-3_4003_138" fill="white">
<path d="M58.5 73.9369C64.8513 73.9369 70 79.0394 70 85.3334C70 87.41 69.4362 89.355 68.457 91.0317H68.459L58.5 108.126L48.541 91.0317H48.543C47.5638 89.355 47 87.41 47 85.3334C47 79.0394 52.1487 73.9369 58.5 73.9369Z"/>
</mask>
<path d="M58.5 73.9369C64.8513 73.9369 70 79.0394 70 85.3334C70 87.41 69.4362 89.355 68.457 91.0317H68.459L58.5 108.126L48.541 91.0317H48.543C47.5638 89.355 47 87.41 47 85.3334C47 79.0394 52.1487 73.9369 58.5 73.9369Z" fill="#76DE65"/>
<path d="M70 85.3334L71 85.3334V85.3334H70ZM68.457 91.0317L67.5935 90.5274L66.715 92.0317H68.457V91.0317ZM68.459 91.0317L69.323 91.535L70.1989 90.0317H68.459V91.0317ZM58.5 108.126L57.6359 108.63L58.5 110.113L59.3641 108.63L58.5 108.126ZM48.541 91.0317V90.0317H46.8011L47.677 91.535L48.541 91.0317ZM48.543 91.0317V92.0317H50.285L49.4065 90.5274L48.543 91.0317ZM47 85.3334L46 85.3334L46 85.3334L47 85.3334ZM58.5 73.9369V74.9369C64.3075 74.9369 69 79.6002 69 85.3334H70H71C71 78.4786 65.395 72.9369 58.5 72.9369V73.9369ZM70 85.3334L69 85.3334C69 87.2264 68.4866 88.9981 67.5935 90.5274L68.457 91.0317L69.3206 91.536C70.3859 89.7118 71 87.5936 71 85.3334L70 85.3334ZM68.457 91.0317V92.0317H68.459V91.0317V90.0317H68.457V91.0317ZM68.459 91.0317L67.5949 90.5283L57.6359 107.623L58.5 108.126L59.3641 108.63L69.323 91.535L68.459 91.0317ZM58.5 108.126L59.3641 107.623L49.4051 90.5283L48.541 91.0317L47.677 91.535L57.6359 108.63L58.5 108.126ZM48.541 91.0317V92.0317H48.543V91.0317V90.0317H48.541V91.0317ZM48.543 91.0317L49.4065 90.5274C48.5134 88.9981 48 87.2264 48 85.3334L47 85.3334L46 85.3334C46 87.5936 46.6141 89.7118 47.6794 91.536L48.543 91.0317ZM47 85.3334H48C48 79.6002 52.6925 74.9369 58.5 74.9369V73.9369V72.9369C51.605 72.9369 46 78.4786 46 85.3334H47Z" fill="white" mask="url(#path-9-inside-3_4003_138)"/>
</g>
<path d="M68 67.5C72.1463 67.5 75.4999 70.8297 75.5 74.9277C75.5 79.0258 72.1464 82.3555 68 82.3555C63.8536 82.3555 60.5 79.0258 60.5 74.9277C60.5001 70.8297 63.8537 67.5 68 67.5Z" fill="#FF5252" stroke="white"/>
<g clip-path="url(#clip0_4003_138)">
<path d="M67.002 78C67.002 77.8687 67.0279 77.7386 67.0781 77.6173C67.1284 77.496 67.202 77.3857 67.2949 77.2929C67.3878 77.2 67.498 77.1264 67.6193 77.0761C67.7407 77.0259 67.8707 77 68.002 77C68.1333 77 68.2634 77.0259 68.3847 77.0761C68.506 77.1264 68.6163 77.2 68.7091 77.2929C68.802 77.3857 68.8756 77.496 68.9259 77.6173C68.9761 77.7386 69.002 77.8687 69.002 78C69.002 78.2652 68.8967 78.5196 68.7091 78.7071C68.5216 78.8946 68.2672 79 68.002 79C67.7368 79 67.4824 78.8946 67.2949 78.7071C67.1074 78.5196 67.002 78.2652 67.002 78ZM67.1 71.995C67.0867 71.8688 67.1001 71.7413 67.1392 71.6206C67.1784 71.5 67.2425 71.3889 67.3273 71.2946C67.4122 71.2003 67.5159 71.1249 67.6318 71.0733C67.7477 71.0217 67.8732 70.995 68 70.995C68.1269 70.995 68.2523 71.0217 68.3682 71.0733C68.4841 71.1249 68.5878 71.2003 68.6727 71.2946C68.7576 71.3889 68.8217 71.5 68.8608 71.6206C68.9 71.7413 68.9133 71.8688 68.9 71.995L68.55 75.502C68.5358 75.638 68.4717 75.7638 68.3701 75.8553C68.2686 75.9468 68.1367 75.9975 68 75.9975C67.8633 75.9975 67.7314 75.9468 67.6299 75.8553C67.5283 75.7638 67.4642 75.638 67.45 75.502L67.1 71.995Z" fill="white"/>
</g>
<path d="M46.6813 118.737H53.2173V119.265H46.6813V118.737ZM49.6173 117.969H50.2812V118.969H49.6173V117.969ZM47.5213 121.009H52.4893V121.545H47.5213V121.009ZM47.5213 119.737H48.1853V121.297H47.5213V119.737ZM47.0253 115.137H52.8413V115.649H47.0253V115.137ZM49.9453 115.969C50.6866 115.969 51.2599 116.062 51.6653 116.249C52.0759 116.436 52.2813 116.708 52.2813 117.065C52.2813 117.422 52.0759 117.697 51.6653 117.889C51.2599 118.076 50.6866 118.169 49.9453 118.169C49.2039 118.169 48.6279 118.076 48.2173 117.889C47.8119 117.697 47.6093 117.422 47.6093 117.065C47.6093 116.708 47.8119 116.436 48.2173 116.249C48.6279 116.062 49.2039 115.969 49.9453 115.969ZM49.9453 116.449C49.4119 116.449 49.0013 116.502 48.7133 116.609C48.4253 116.71 48.2812 116.862 48.2812 117.065C48.2812 117.268 48.4253 117.422 48.7133 117.529C49.0013 117.63 49.4119 117.681 49.9453 117.681C50.4786 117.681 50.8893 117.63 51.1773 117.529C51.4653 117.422 51.6093 117.268 51.6093 117.065C51.6093 116.862 51.4653 116.71 51.1773 116.609C50.8893 116.502 50.4786 116.449 49.9453 116.449ZM49.6173 114.385H50.2812V115.425H49.6173V114.385ZM55.8166 115.137H56.3526V115.729C56.3526 116.156 56.27 116.556 56.1046 116.929C55.9393 117.297 55.702 117.617 55.3926 117.889C55.0886 118.161 54.734 118.369 54.3286 118.513L53.9926 117.985C54.3553 117.862 54.6726 117.689 54.9446 117.465C55.222 117.241 55.4353 116.98 55.5846 116.681C55.7393 116.377 55.8166 116.06 55.8166 115.729V115.137ZM55.9286 115.137H56.4806V115.721C56.4806 116.025 56.5526 116.318 56.6966 116.601C56.8406 116.884 57.0433 117.132 57.3046 117.345C57.5713 117.558 57.8833 117.724 58.2406 117.841L57.9286 118.361C57.5233 118.228 57.1713 118.033 56.8726 117.777C56.574 117.516 56.342 117.209 56.1766 116.857C56.0113 116.5 55.9286 116.121 55.9286 115.721V115.137ZM54.2006 114.945H58.0726V115.489H54.2006V114.945ZM58.9926 114.465H59.6566V118.433H58.9926V114.465ZM59.4726 116.137H60.7206V116.689H59.4726V116.137ZM55.0966 118.777H55.7526V119.649H58.9926V118.777H59.6566V121.609H55.0966V118.777ZM55.7526 120.177V121.065H58.9926V120.177H55.7526ZM64.28 116.217H65.696V116.761H64.28V116.217ZM64.28 118.417H65.696V118.969H64.28V118.417ZM66.912 114.465H67.552V121.705H66.912V114.465ZM65.488 114.617H66.12V121.337H65.488V114.617ZM63.024 115.073C63.3387 115.073 63.6107 115.174 63.84 115.377C64.0747 115.58 64.256 115.87 64.384 116.249C64.512 116.628 64.576 117.073 64.576 117.585C64.576 118.102 64.512 118.55 64.384 118.929C64.256 119.308 64.0747 119.601 63.84 119.809C63.6107 120.012 63.3387 120.113 63.024 120.113C62.72 120.113 62.4507 120.012 62.216 119.809C61.9867 119.601 61.808 119.308 61.68 118.929C61.552 118.55 61.488 118.102 61.488 117.585C61.488 117.073 61.552 116.628 61.68 116.249C61.808 115.87 61.9867 115.58 62.216 115.377C62.4507 115.174 62.72 115.073 63.024 115.073ZM63.024 115.689C62.8373 115.689 62.672 115.766 62.528 115.921C62.3893 116.076 62.2827 116.294 62.208 116.577C62.1333 116.86 62.096 117.196 62.096 117.585C62.096 117.974 62.1333 118.313 62.208 118.601C62.2827 118.884 62.3893 119.102 62.528 119.257C62.672 119.412 62.8373 119.489 63.024 119.489C63.2213 119.489 63.3893 119.412 63.528 119.257C63.6667 119.102 63.7733 118.884 63.848 118.601C63.928 118.313 63.968 117.974 63.968 117.585C63.968 117.196 63.928 116.86 63.848 116.577C63.7733 116.294 63.6667 116.076 63.528 115.921C63.3893 115.766 63.2213 115.689 63.024 115.689ZM70.5194 114.841H71.0634V115.577C71.0634 116.041 70.9807 116.473 70.8154 116.873C70.6554 117.273 70.426 117.622 70.1274 117.921C69.8287 118.214 69.4794 118.438 69.0794 118.593L68.7194 118.065C69.0874 117.932 69.4047 117.74 69.6714 117.489C69.9434 117.238 70.1514 116.95 70.2954 116.625C70.4447 116.294 70.5194 115.945 70.5194 115.577V114.841ZM70.6394 114.841H71.1754V115.633C71.1754 115.873 71.218 116.11 71.3034 116.345C71.3887 116.574 71.5087 116.788 71.6634 116.985C71.8234 117.182 72.01 117.358 72.2234 117.513C72.4367 117.662 72.674 117.782 72.9354 117.873L72.5834 118.393C72.1994 118.249 71.8607 118.041 71.5674 117.769C71.274 117.492 71.0447 117.172 70.8794 116.809C70.7194 116.441 70.6394 116.049 70.6394 115.633V114.841ZM73.7114 114.465H74.3754V118.857H73.7114V114.465ZM74.1914 116.337H75.4394V116.897H74.1914V116.337ZM72.0714 119.049C72.562 119.049 72.9834 119.102 73.3354 119.209C73.6927 119.31 73.9674 119.46 74.1594 119.657C74.3514 119.854 74.4474 120.092 74.4474 120.369C74.4474 120.646 74.3514 120.884 74.1594 121.081C73.9674 121.278 73.6927 121.428 73.3354 121.529C72.9834 121.636 72.562 121.689 72.0714 121.689C71.5807 121.689 71.1567 121.636 70.7994 121.529C70.442 121.428 70.1674 121.278 69.9754 121.081C69.7834 120.884 69.6874 120.646 69.6874 120.369C69.6874 120.092 69.7834 119.854 69.9754 119.657C70.1674 119.46 70.442 119.31 70.7994 119.209C71.1567 119.102 71.5807 119.049 72.0714 119.049ZM72.0714 119.577C71.714 119.577 71.4047 119.609 71.1434 119.673C70.8874 119.737 70.69 119.828 70.5514 119.945C70.4127 120.062 70.3434 120.204 70.3434 120.369C70.3434 120.54 70.4127 120.684 70.5514 120.801C70.69 120.918 70.8874 121.009 71.1434 121.073C71.4047 121.132 71.714 121.161 72.0714 121.161C72.4287 121.161 72.7354 121.132 72.9914 121.073C73.2474 121.009 73.4447 120.918 73.5834 120.801C73.722 120.684 73.7914 120.54 73.7914 120.369C73.7914 120.204 73.722 120.062 73.5834 119.945C73.4447 119.828 73.2474 119.737 72.9914 119.673C72.7354 119.609 72.4287 119.577 72.0714 119.577Z" fill="black"/>
<g filter="url(#filter3_d_4003_138)">
<mask id="path-14-inside-4_4003_138" fill="white">
<path d="M59.5 20C65.8513 20 71 25.1487 71 31.5C71 33.5953 70.437 35.5582 69.458 37.25H69.459L59.5 54.5L49.541 37.25H49.542C48.563 35.5582 48 33.5953 48 31.5C48 25.1487 53.1487 20 59.5 20Z"/>
</mask>
<path d="M59.5 20C65.8513 20 71 25.1487 71 31.5C71 33.5953 70.437 35.5582 69.458 37.25H69.459L59.5 54.5L49.541 37.25H49.542C48.563 35.5582 48 33.5953 48 31.5C48 25.1487 53.1487 20 59.5 20Z" fill="#FE8686"/>
<path d="M69.458 37.25L68.5925 36.7491L67.724 38.25H69.458V37.25ZM69.459 37.25L70.325 37.75L71.191 36.25H69.459V37.25ZM59.5 54.5L58.634 55L59.5 56.5L60.366 55L59.5 54.5ZM49.541 37.25V36.25H47.809L48.675 37.75L49.541 37.25ZM49.542 37.25V38.25H51.276L50.4075 36.7491L49.542 37.25ZM59.5 20V21C65.299 21 70 25.701 70 31.5H71H72C72 24.5964 66.4036 19 59.5 19V20ZM71 31.5H70C70 33.4137 69.4863 35.2046 68.5925 36.7491L69.458 37.25L70.3235 37.7509C71.3878 35.9118 72 33.7768 72 31.5H71ZM69.458 37.25V38.25H69.459V37.25V36.25H69.458V37.25ZM69.459 37.25L68.593 36.75L58.634 54L59.5 54.5L60.366 55L70.325 37.75L69.459 37.25ZM59.5 54.5L60.366 54L50.407 36.75L49.541 37.25L48.675 37.75L58.634 55L59.5 54.5ZM49.541 37.25V38.25H49.542V37.25V36.25H49.541V37.25ZM49.542 37.25L50.4075 36.7491C49.5137 35.2046 49 33.4137 49 31.5H48H47C47 33.7768 47.6122 35.9118 48.6765 37.7509L49.542 37.25ZM48 31.5H49C49 25.701 53.701 21 59.5 21V20V19C52.5964 19 47 24.5964 47 31.5H48Z" fill="white" mask="url(#path-14-inside-4_4003_138)"/>
<g clip-path="url(#clip1_4003_138)">
<path d="M62.5478 26.0638C62.6396 26.1169 62.7106 26.1997 62.7492 26.2984C62.7879 26.3972 62.7919 26.5062 62.7606 26.6075L61.0722 32.0938H64.1875C64.2791 32.0937 64.3686 32.1205 64.4451 32.1708C64.5216 32.221 64.5817 32.2926 64.618 32.3767C64.6543 32.4607 64.6652 32.5536 64.6493 32.6437C64.6335 32.7339 64.5916 32.8175 64.5288 32.8841L57.0288 40.8528C56.9562 40.93 56.8596 40.9803 56.7548 40.9956C56.65 41.0108 56.5431 40.9901 56.4515 40.9368C56.36 40.8836 56.2891 40.8008 56.2506 40.7022C56.2121 40.6035 56.2081 40.4947 56.2394 40.3934L57.9278 34.9063H54.8125C54.721 34.9063 54.6314 34.8795 54.5549 34.8292C54.4784 34.779 54.4183 34.7074 54.382 34.6233C54.3457 34.5393 54.3348 34.4464 54.3507 34.3563C54.3665 34.2661 54.4084 34.1826 54.4713 34.1159L61.9713 26.1472C62.0437 26.0701 62.1402 26.0198 62.2448 26.0045C62.3495 25.9892 62.4563 26.0098 62.5478 26.0628V26.0638Z" fill="#FFF500"/>
</g>
</g>
<path d="M52.2969 12.304H52.9529V13.392H52.2969V12.304ZM49.3609 11.952H55.8969V12.488H49.3609V11.952ZM52.2969 8.368H52.9529V9.344H52.2969V8.368ZM52.2649 9.424H52.8489V9.536C52.8489 9.83467 52.7716 10.1013 52.6169 10.336C52.4676 10.5707 52.2569 10.7733 51.9849 10.944C51.7183 11.1147 51.4089 11.2533 51.0569 11.36C50.7103 11.4613 50.3396 11.5333 49.9449 11.576L49.7369 11.064C50.0889 11.032 50.4169 10.9733 50.7209 10.888C51.0249 10.8027 51.2916 10.696 51.5209 10.568C51.7556 10.4347 51.9369 10.2827 52.0649 10.112C52.1983 9.936 52.2649 9.744 52.2649 9.536V9.424ZM52.4089 9.424H52.9849V9.536C52.9849 9.744 53.0489 9.936 53.1769 10.112C53.3103 10.2827 53.4916 10.4347 53.7209 10.568C53.9556 10.696 54.2249 10.8027 54.5289 10.888C54.8329 10.9733 55.1609 11.032 55.5129 11.064L55.3129 11.576C54.9183 11.5333 54.5449 11.4613 54.1929 11.36C53.8463 11.2533 53.5369 11.1147 53.2649 10.944C52.9983 10.7733 52.7876 10.5707 52.6329 10.336C52.4836 10.1013 52.4089 9.83467 52.4089 9.536V9.424ZM50.0329 9.088H55.2329V9.624H50.0329V9.088ZM52.6249 13.208C53.4036 13.208 54.0089 13.312 54.4409 13.52C54.8783 13.7227 55.0969 14.0187 55.0969 14.408C55.0969 14.7973 54.8783 15.0933 54.4409 15.296C54.0089 15.504 53.4036 15.608 52.6249 15.608C51.8463 15.608 51.2383 15.504 50.8009 15.296C50.3636 15.0933 50.1449 14.7973 50.1449 14.408C50.1449 14.0187 50.3636 13.7227 50.8009 13.52C51.2383 13.312 51.8463 13.208 52.6249 13.208ZM52.6249 13.712C52.0489 13.712 51.6036 13.7733 51.2889 13.896C50.9743 14.0133 50.8169 14.184 50.8169 14.408C50.8169 14.632 50.9743 14.8053 51.2889 14.928C51.6036 15.0453 52.0489 15.104 52.6249 15.104C53.1956 15.104 53.6383 15.0453 53.9529 14.928C54.2729 14.8053 54.4329 14.632 54.4329 14.408C54.4329 14.184 54.2729 14.0133 53.9529 13.896C53.6383 13.7733 53.1956 13.712 52.6249 13.712ZM60.5523 10.384H62.3843V10.928H60.5523V10.384ZM62.0083 8.392H62.6723V13.696H62.0083V8.392ZM58.0563 14.92H62.8723V15.464H58.0563V14.92ZM58.0563 13.224H58.7123V15.192H58.0563V13.224ZM58.5603 9.288H59.1043V9.872C59.1043 10.3093 59.019 10.7227 58.8483 11.112C58.683 11.496 58.4483 11.832 58.1443 12.12C57.8403 12.4027 57.4883 12.6213 57.0883 12.776L56.7443 12.24C57.011 12.144 57.2536 12.016 57.4723 11.856C57.6963 11.696 57.891 11.512 58.0563 11.304C58.2216 11.096 58.347 10.8693 58.4323 10.624C58.5176 10.3787 58.5603 10.128 58.5603 9.872V9.288ZM58.6883 9.288H59.2323V9.872C59.2323 10.1813 59.3043 10.4827 59.4483 10.776C59.5923 11.0693 59.7976 11.3307 60.0643 11.56C60.331 11.784 60.6376 11.9573 60.9843 12.08L60.6483 12.608C60.2536 12.464 59.9096 12.256 59.6163 11.984C59.323 11.7067 59.0936 11.3867 58.9283 11.024C58.7683 10.6613 58.6883 10.2773 58.6883 9.872V9.288ZM56.9523 8.976H60.8163V9.52H56.9523V8.976ZM67.0157 12H67.6717V13.264H67.0157V12ZM64.0797 11.768H70.6157V12.312H64.0797V11.768ZM67.3437 13.064C68.117 13.064 68.7224 13.1733 69.1597 13.392C69.597 13.6107 69.8157 13.9253 69.8157 14.336C69.8157 14.7413 69.597 15.0533 69.1597 15.272C68.7224 15.496 68.117 15.608 67.3437 15.608C66.5704 15.608 65.9624 15.496 65.5197 15.272C65.0824 15.0533 64.8637 14.7413 64.8637 14.336C64.8637 13.9253 65.0824 13.6107 65.5197 13.392C65.9624 13.1733 66.5704 13.064 67.3437 13.064ZM67.3437 13.584C66.965 13.584 66.6397 13.6133 66.3677 13.672C66.101 13.7307 65.8957 13.816 65.7517 13.928C65.6077 14.04 65.5357 14.176 65.5357 14.336C65.5357 14.496 65.6077 14.632 65.7517 14.744C65.8957 14.856 66.101 14.9413 66.3677 15C66.6397 15.064 66.965 15.096 67.3437 15.096C67.7224 15.096 68.045 15.064 68.3117 15C68.5837 14.9413 68.7917 14.856 68.9357 14.744C69.0797 14.632 69.1517 14.496 69.1517 14.336C69.1517 14.176 69.0797 14.04 68.9357 13.928C68.7917 13.816 68.5837 13.7307 68.3117 13.672C68.045 13.6133 67.7224 13.584 67.3437 13.584ZM66.9197 8.984H67.5037V9.2C67.5037 9.43467 67.453 9.65067 67.3517 9.848C67.2557 10.0453 67.1197 10.2293 66.9437 10.4C66.7677 10.5653 66.5597 10.712 66.3197 10.84C66.085 10.968 65.829 11.0747 65.5517 11.16C65.2744 11.24 64.9837 11.2987 64.6797 11.336L64.4397 10.808C64.701 10.7813 64.9517 10.736 65.1917 10.672C65.437 10.6027 65.6637 10.52 65.8717 10.424C66.085 10.3227 66.269 10.208 66.4237 10.08C66.5784 9.952 66.6984 9.81333 66.7837 9.664C66.8744 9.51467 66.9197 9.36 66.9197 9.2V8.984ZM67.1917 8.984H67.7757V9.2C67.7757 9.36533 67.8184 9.52267 67.9037 9.672C67.9944 9.816 68.117 9.952 68.2717 10.08C68.4264 10.2027 68.6077 10.3147 68.8157 10.416C69.029 10.512 69.2557 10.5947 69.4957 10.664C69.741 10.7333 69.9944 10.7813 70.2557 10.808L70.0157 11.336C69.7117 11.2987 69.421 11.24 69.1437 11.16C68.8664 11.0747 68.6077 10.968 68.3677 10.84C68.133 10.712 67.9277 10.5653 67.7517 10.4C67.5757 10.2347 67.437 10.0507 67.3357 9.848C67.2397 9.64533 67.1917 9.42933 67.1917 9.2V8.984ZM64.6797 8.72H70.0237V9.256H64.6797V8.72Z" fill="black"/>
<g filter="url(#filter4_d_4003_138)">
<mask id="path-18-inside-5_4003_138" fill="white">
<path d="M98.5 20C104.851 20 110 25.1487 110 31.5C110 33.5953 109.437 35.5582 108.458 37.25H108.459L98.5 54.5L88.541 37.25H88.542C87.563 35.5582 87 33.5953 87 31.5C87 25.1487 92.1487 20 98.5 20Z"/>
</mask>
<path d="M98.5 20C104.851 20 110 25.1487 110 31.5C110 33.5953 109.437 35.5582 108.458 37.25H108.459L98.5 54.5L88.541 37.25H88.542C87.563 35.5582 87 33.5953 87 31.5C87 25.1487 92.1487 20 98.5 20Z" fill="#FFE600"/>
<path d="M108.458 37.25L107.592 36.7491L106.724 38.25H108.458V37.25ZM108.459 37.25L109.325 37.75L110.191 36.25H108.459V37.25ZM98.5 54.5L97.634 55L98.5 56.5L99.366 55L98.5 54.5ZM88.541 37.25V36.25H86.809L87.675 37.75L88.541 37.25ZM88.542 37.25V38.25H90.276L89.4075 36.7491L88.542 37.25ZM98.5 20V21C104.299 21 109 25.701 109 31.5H110H111C111 24.5964 105.404 19 98.5 19V20ZM110 31.5H109C109 33.4137 108.486 35.2046 107.592 36.7491L108.458 37.25L109.324 37.7509C110.388 35.9118 111 33.7768 111 31.5H110ZM108.458 37.25V38.25H108.459V37.25V36.25H108.458V37.25ZM108.459 37.25L107.593 36.75L97.634 54L98.5 54.5L99.366 55L109.325 37.75L108.459 37.25ZM98.5 54.5L99.366 54L89.407 36.75L88.541 37.25L87.675 37.75L97.634 55L98.5 54.5ZM88.541 37.25V38.25H88.542V37.25V36.25H88.541V37.25ZM88.542 37.25L89.4075 36.7491C88.5137 35.2046 88 33.4137 88 31.5H87H86C86 33.7768 86.6122 35.9118 87.6765 37.7509L88.542 37.25ZM87 31.5H88C88 25.701 92.701 21 98.5 21V20V19C91.5964 19 86 24.5964 86 31.5H87Z" fill="white" mask="url(#path-18-inside-5_4003_138)"/>
</g>
<path d="M82.7536 8.768H83.3056V9.504C83.3056 10.896 82.5216 12.048 81.3136 12.52L80.9616 11.984C82.0496 11.584 82.7536 10.608 82.7536 9.504V8.768ZM82.8736 8.768H83.4176V9.552C83.4176 10.528 84.1376 11.432 85.1776 11.792L84.8256 12.312C83.6656 11.88 82.8736 10.808 82.8736 9.552V8.768ZM85.9456 8.392H86.6096V12.776H85.9456V8.392ZM86.4256 10.256H87.6816V10.816H86.4256V10.256ZM84.3056 12.976C85.7856 12.976 86.6816 13.464 86.6816 14.296C86.6816 15.128 85.7856 15.608 84.3056 15.608C82.8256 15.608 81.9296 15.128 81.9296 14.296C81.9296 13.464 82.8256 12.976 84.3056 12.976ZM84.3056 13.504C83.2336 13.504 82.5776 13.792 82.5776 14.296C82.5776 14.8 83.2336 15.088 84.3056 15.088C85.3776 15.088 86.0336 14.8 86.0336 14.296C86.0336 13.792 85.3776 13.504 84.3056 13.504ZM88.6409 13.28H89.1129C90.2569 13.28 90.9369 13.256 91.7449 13.096L91.8169 13.648C90.9769 13.816 90.2729 13.84 89.1129 13.84H88.6409V13.28ZM88.6409 9.216H91.4889V9.76H89.2729V13.488H88.6409V9.216ZM89.0809 11.128H91.3769V11.664H89.0809V11.128ZM93.8649 8.392H94.5049V15.624H93.8649V8.392ZM92.7209 11.288H94.1049V11.84H92.7209V11.288ZM92.2729 8.544H92.9049V15.264H92.2729V8.544ZM96.1283 9.096H99.4563V13.808H96.1283V9.096ZM98.8083 9.632H96.7763V13.272H98.8083V9.632ZM100.968 8.384H101.632V15.632H100.968V8.384ZM104.968 11.784H105.632V12.712H104.968V11.784ZM108.016 8.4H108.68V13.248H108.016V8.4ZM108.4 10.584H109.736V11.136H108.4V10.584ZM103.12 13.04L103.032 12.496C104.328 12.496 106.088 12.496 107.584 12.28L107.64 12.752C106.096 13.024 104.384 13.032 103.12 13.04ZM103.928 13.608H108.68V15.624H108.016V14.136H103.928V13.608ZM103.216 9.048H107.368V9.544H103.216V9.048ZM105.296 9.824C106.312 9.824 106.976 10.232 106.976 10.896C106.976 11.56 106.312 11.968 105.296 11.968C104.272 11.968 103.608 11.56 103.608 10.896C103.608 10.232 104.272 9.824 105.296 9.824ZM105.296 10.28C104.648 10.28 104.232 10.512 104.232 10.896C104.232 11.264 104.648 11.504 105.296 11.504C105.936 11.504 106.352 11.264 106.352 10.896C106.352 10.512 105.936 10.28 105.296 10.28ZM104.968 8.336H105.632V9.288H104.968V8.336ZM115.695 8.4H116.367V13.68H115.695V8.4ZM111.719 14.92H116.583V15.464H111.719V14.92ZM111.719 13.136H112.375V15.104H111.719V13.136ZM112.487 8.896C113.567 8.896 114.367 9.632 114.367 10.68C114.367 11.72 113.567 12.464 112.487 12.464C111.407 12.464 110.599 11.72 110.599 10.68C110.599 9.632 111.407 8.896 112.487 8.896ZM112.487 9.472C111.783 9.472 111.247 9.968 111.247 10.68C111.247 11.384 111.783 11.88 112.487 11.88C113.191 11.88 113.727 11.384 113.727 10.68C113.727 9.968 113.191 9.472 112.487 9.472Z" fill="black"/>
<path d="M82.7536 8.768H83.3056V9.504C83.3056 10.896 82.5216 12.048 81.3136 12.52L80.9616 11.984C82.0496 11.584 82.7536 10.608 82.7536 9.504V8.768ZM82.8736 8.768H83.4176V9.552C83.4176 10.528 84.1376 11.432 85.1776 11.792L84.8256 12.312C83.6656 11.88 82.8736 10.808 82.8736 9.552V8.768ZM85.9456 8.392H86.6096V12.776H85.9456V8.392ZM86.4256 10.256H87.6816V10.816H86.4256V10.256ZM84.3056 12.976C85.7856 12.976 86.6816 13.464 86.6816 14.296C86.6816 15.128 85.7856 15.608 84.3056 15.608C82.8256 15.608 81.9296 15.128 81.9296 14.296C81.9296 13.464 82.8256 12.976 84.3056 12.976ZM84.3056 13.504C83.2336 13.504 82.5776 13.792 82.5776 14.296C82.5776 14.8 83.2336 15.088 84.3056 15.088C85.3776 15.088 86.0336 14.8 86.0336 14.296C86.0336 13.792 85.3776 13.504 84.3056 13.504ZM88.6409 13.28H89.1129C90.2569 13.28 90.9369 13.256 91.7449 13.096L91.8169 13.648C90.9769 13.816 90.2729 13.84 89.1129 13.84H88.6409V13.28ZM88.6409 9.216H91.4889V9.76H89.2729V13.488H88.6409V9.216ZM89.0809 11.128H91.3769V11.664H89.0809V11.128ZM93.8649 8.392H94.5049V15.624H93.8649V8.392ZM92.7209 11.288H94.1049V11.84H92.7209V11.288ZM92.2729 8.544H92.9049V15.264H92.2729V8.544ZM96.1283 9.096H99.4563V13.808H96.1283V9.096ZM98.8083 9.632H96.7763V13.272H98.8083V9.632ZM100.968 8.384H101.632V15.632H100.968V8.384ZM104.968 11.784H105.632V12.712H104.968V11.784ZM108.016 8.4H108.68V13.248H108.016V8.4ZM108.4 10.584H109.736V11.136H108.4V10.584ZM103.12 13.04L103.032 12.496C104.328 12.496 106.088 12.496 107.584 12.28L107.64 12.752C106.096 13.024 104.384 13.032 103.12 13.04ZM103.928 13.608H108.68V15.624H108.016V14.136H103.928V13.608ZM103.216 9.048H107.368V9.544H103.216V9.048ZM105.296 9.824C106.312 9.824 106.976 10.232 106.976 10.896C106.976 11.56 106.312 11.968 105.296 11.968C104.272 11.968 103.608 11.56 103.608 10.896C103.608 10.232 104.272 9.824 105.296 9.824ZM105.296 10.28C104.648 10.28 104.232 10.512 104.232 10.896C104.232 11.264 104.648 11.504 105.296 11.504C105.936 11.504 106.352 11.264 106.352 10.896C106.352 10.512 105.936 10.28 105.296 10.28ZM104.968 8.336H105.632V9.288H104.968V8.336ZM115.695 8.4H116.367V13.68H115.695V8.4ZM111.719 14.92H116.583V15.464H111.719V14.92ZM111.719 13.136H112.375V15.104H111.719V13.136ZM112.487 8.896C113.567 8.896 114.367 9.632 114.367 10.68C114.367 11.72 113.567 12.464 112.487 12.464C111.407 12.464 110.599 11.72 110.599 10.68C110.599 9.632 111.407 8.896 112.487 8.896ZM112.487 9.472C111.783 9.472 111.247 9.968 111.247 10.68C111.247 11.384 111.783 11.88 112.487 11.88C113.191 11.88 113.727 11.384 113.727 10.68C113.727 9.968 113.191 9.472 112.487 9.472Z" fill="black"/>
<g filter="url(#filter5_d_4003_138)">
<mask id="path-22-inside-6_4003_138" fill="white">
<path fill-rule="evenodd" clip-rule="evenodd" d="M109.359 90.4238C110.401 88.6936 111 86.6668 111 84.5C111 78.1487 105.851 73 99.5 73C93.1487 73 88 78.1487 88 84.5C88 86.6658 88.5987 88.6917 89.6396 90.4213L99.5 107.5L109.359 90.4238Z"/>
</mask>
<path fill-rule="evenodd" clip-rule="evenodd" d="M109.359 90.4238C110.401 88.6936 111 86.6668 111 84.5C111 78.1487 105.851 73 99.5 73C93.1487 73 88 78.1487 88 84.5C88 86.6658 88.5987 88.6917 89.6396 90.4213L99.5 107.5L109.359 90.4238Z" fill="#5966AB"/>
<path d="M109.359 90.4238L108.502 89.908L108.497 89.9158L108.493 89.9238L109.359 90.4238ZM89.6396 90.4213L90.5056 89.9213L90.5011 89.9135L90.4964 89.9057L89.6396 90.4213ZM99.5 107.5L98.6339 108L99.5 109.5L100.366 108L99.5 107.5ZM110 84.5C110 86.48 109.453 88.3291 108.502 89.908L110.216 90.9397C111.349 89.0581 112 86.8536 112 84.5H110ZM99.5 74C105.299 74 110 78.701 110 84.5H112C112 77.5964 106.404 72 99.5 72V74ZM89 84.5C89 78.701 93.701 74 99.5 74V72C92.5964 72 87 77.5964 87 84.5H89ZM90.4964 89.9057C89.5466 88.3274 89 86.479 89 84.5H87C87 86.8525 87.6508 89.056 88.7828 90.937L90.4964 89.9057ZM100.366 107L90.5056 89.9213L88.7736 90.9213L98.6339 108L100.366 107ZM108.493 89.9238L98.6339 107L100.366 108L110.225 90.9238L108.493 89.9238Z" fill="white" mask="url(#path-22-inside-6_4003_138)"/>
</g>
<path d="M92.0729 116.088H93.8889V116.64H92.0729V116.088ZM90.1769 114.824H90.7129V115.712C90.7129 116.176 90.6303 116.611 90.4649 117.016C90.2996 117.421 90.0676 117.776 89.7689 118.08C89.4703 118.379 89.1209 118.608 88.7209 118.768L88.3689 118.24C88.6409 118.139 88.8863 118.003 89.1049 117.832C89.3289 117.661 89.5183 117.464 89.6729 117.24C89.8329 117.016 89.9556 116.776 90.0409 116.52C90.1316 116.259 90.1769 115.989 90.1769 115.712V114.824ZM90.2969 114.824H90.8329V115.736C90.8329 115.987 90.8756 116.232 90.9609 116.472C91.0463 116.712 91.1663 116.936 91.3209 117.144C91.4756 117.352 91.6596 117.536 91.8729 117.696C92.0916 117.856 92.3316 117.984 92.5929 118.08L92.2329 118.6C91.8489 118.445 91.5103 118.227 91.2169 117.944C90.9289 117.661 90.7023 117.331 90.5369 116.952C90.3769 116.573 90.2969 116.168 90.2969 115.736V114.824ZM93.6489 114.392H94.3129V119.8H93.6489V114.392ZM89.6649 120.92H94.4809V121.464H89.6649V120.92ZM89.6649 119.2H90.3289V121.168H89.6649V119.2ZM96.0323 117.848H96.4883C96.8723 117.848 97.2083 117.845 97.4963 117.84C97.7896 117.829 98.0643 117.811 98.3203 117.784C98.5763 117.752 98.8376 117.709 99.1043 117.656L99.1763 118.2C98.899 118.253 98.627 118.296 98.3603 118.328C98.099 118.355 97.819 118.373 97.5203 118.384C97.2216 118.395 96.8776 118.4 96.4883 118.4H96.0323V117.848ZM96.0323 114.912H98.8243V115.456H96.6723V118.144H96.0323V114.912ZM96.4723 116.352H98.7443V116.872H96.4723V116.352ZM101.184 114.392H101.816V118.776H101.184V114.392ZM100.016 116.272H101.376V116.816H100.016V116.272ZM99.5843 114.528H100.208V118.728H99.5843V114.528ZM96.9683 119.152H101.816V121.624H101.16V119.696H96.9683V119.152ZM104.984 115.008H105.536V116.304C105.536 116.72 105.482 117.125 105.376 117.52C105.274 117.909 105.128 118.275 104.936 118.616C104.749 118.952 104.528 119.251 104.272 119.512C104.021 119.768 103.746 119.971 103.448 120.12L103.04 119.568C103.312 119.445 103.565 119.269 103.8 119.04C104.034 118.811 104.24 118.552 104.416 118.264C104.592 117.971 104.73 117.656 104.832 117.32C104.933 116.984 104.984 116.645 104.984 116.304V115.008ZM105.096 115.008H105.648V116.304C105.648 116.635 105.696 116.96 105.792 117.28C105.893 117.6 106.032 117.904 106.208 118.192C106.389 118.475 106.594 118.725 106.824 118.944C107.058 119.157 107.309 119.325 107.576 119.448L107.176 119.976C106.882 119.837 106.61 119.643 106.36 119.392C106.109 119.141 105.888 118.853 105.696 118.528C105.509 118.203 105.362 117.851 105.256 117.472C105.149 117.093 105.096 116.704 105.096 116.304V115.008ZM108.336 114.384H109V121.632H108.336V114.384Z" fill="black"/>
<defs>
<filter id="filter0_d_4003_138" x="5" y="20" width="31" height="42.5" filterUnits="userSpaceOnUse" color-interpolation-filters="sRGB">
<feFlood flood-opacity="0" result="BackgroundImageFix"/>
<feColorMatrix in="SourceAlpha" type="matrix" values="0 0 0 0 0 0 0 0 0 0 0 0 0 0 0 0 0 0 127 0" result="hardAlpha"/>
<feOffset dy="4"/>
<feGaussianBlur stdDeviation="2"/>
<feComposite in2="hardAlpha" operator="out"/>
<feColorMatrix type="matrix" values="0 0 0 0 0 0 0 0 0 0 0 0 0 0 0 0 0 0 0.25 0"/>
<feBlend mode="normal" in2="BackgroundImageFix" result="effect1_dropShadow_4003_138"/>
<feBlend mode="normal" in="SourceGraphic" in2="effect1_dropShadow_4003_138" result="shape"/>
</filter>
<filter id="filter1_d_4003_138" x="4" y="74" width="31" height="42.5" filterUnits="userSpaceOnUse" color-interpolation-filters="sRGB">
<feFlood flood-opacity="0" result="BackgroundImageFix"/>
<feColorMatrix in="SourceAlpha" type="matrix" values="0 0 0 0 0 0 0 0 0 0 0 0 0 0 0 0 0 0 127 0" result="hardAlpha"/>
<feOffset dy="4"/>
<feGaussianBlur stdDeviation="2"/>
<feComposite in2="hardAlpha" operator="out"/>
<feColorMatrix type="matrix" values="0 0 0 0 0 0 0 0 0 0 0 0 0 0 0 0 0 0 0.25 0"/>
<feBlend mode="normal" in2="BackgroundImageFix" result="effect1_dropShadow_4003_138"/>
<feBlend mode="normal" in="SourceGraphic" in2="effect1_dropShadow_4003_138" result="shape"/>
</filter>
<filter id="filter2_d_4003_138" x="43" y="73.9369" width="31" height="42.1895" filterUnits="userSpaceOnUse" color-interpolation-filters="sRGB">
<feFlood flood-opacity="0" result="BackgroundImageFix"/>
<feColorMatrix in="SourceAlpha" type="matrix" values="0 0 0 0 0 0 0 0 0 0 0 0 0 0 0 0 0 0 127 0" result="hardAlpha"/>
<feOffset dy="4"/>
<feGaussianBlur stdDeviation="2"/>
<feComposite in2="hardAlpha" operator="out"/>
<feColorMatrix type="matrix" values="0 0 0 0 0 0 0 0 0 0 0 0 0 0 0 0 0 0 0.25 0"/>
<feBlend mode="normal" in2="BackgroundImageFix" result="effect1_dropShadow_4003_138"/>
<feBlend mode="normal" in="SourceGraphic" in2="effect1_dropShadow_4003_138" result="shape"/>
</filter>
<filter id="filter3_d_4003_138" x="44" y="20" width="31" height="42.5" filterUnits="userSpaceOnUse" color-interpolation-filters="sRGB">
<feFlood flood-opacity="0" result="BackgroundImageFix"/>
<feColorMatrix in="SourceAlpha" type="matrix" values="0 0 0 0 0 0 0 0 0 0 0 0 0 0 0 0 0 0 127 0" result="hardAlpha"/>
<feOffset dy="4"/>
<feGaussianBlur stdDeviation="2"/>
<feComposite in2="hardAlpha" operator="out"/>
<feColorMatrix type="matrix" values="0 0 0 0 0 0 0 0 0 0 0 0 0 0 0 0 0 0 0.25 0"/>
<feBlend mode="normal" in2="BackgroundImageFix" result="effect1_dropShadow_4003_138"/>
<feBlend mode="normal" in="SourceGraphic" in2="effect1_dropShadow_4003_138" result="shape"/>
</filter>
<filter id="filter4_d_4003_138" x="83" y="20" width="31" height="42.5" filterUnits="userSpaceOnUse" color-interpolation-filters="sRGB">
<feFlood flood-opacity="0" result="BackgroundImageFix"/>
<feColorMatrix in="SourceAlpha" type="matrix" values="0 0 0 0 0 0 0 0 0 0 0 0 0 0 0 0 0 0 127 0" result="hardAlpha"/>
<feOffset dy="4"/>
<feGaussianBlur stdDeviation="2"/>
<feComposite in2="hardAlpha" operator="out"/>
<feColorMatrix type="matrix" values="0 0 0 0 0 0 0 0 0 0 0 0 0 0 0 0 0 0 0.25 0"/>
<feBlend mode="normal" in2="BackgroundImageFix" result="effect1_dropShadow_4003_138"/>
<feBlend mode="normal" in="SourceGraphic" in2="effect1_dropShadow_4003_138" result="shape"/>
</filter>
<filter id="filter5_d_4003_138" x="84" y="73" width="31" height="42.5" filterUnits="userSpaceOnUse" color-interpolation-filters="sRGB">
<feFlood flood-opacity="0" result="BackgroundImageFix"/>
<feColorMatrix in="SourceAlpha" type="matrix" values="0 0 0 0 0 0 0 0 0 0 0 0 0 0 0 0 0 0 127 0" result="hardAlpha"/>
<feOffset dy="4"/>
<feGaussianBlur stdDeviation="2"/>
<feComposite in2="hardAlpha" operator="out"/>
<feColorMatrix type="matrix" values="0 0 0 0 0 0 0 0 0 0 0 0 0 0 0 0 0 0 0.25 0"/>
<feBlend mode="normal" in2="BackgroundImageFix" result="effect1_dropShadow_4003_138"/>
<feBlend mode="normal" in="SourceGraphic" in2="effect1_dropShadow_4003_138" result="shape"/>
</filter>
<clipPath id="clip0_4003_138">
<rect width="16" height="15.8559" fill="white" transform="translate(60 67)"/>
</clipPath>
<clipPath id="clip1_4003_138">
<rect width="15" height="15" fill="white" transform="translate(52 26)"/>
</clipPath>
</defs>
</svg>
