<svg width="16" height="16" viewBox="0 0 16 16" fill="none" xmlns="http://www.w3.org/2000/svg">
<path d="M3.71404 5.25803C3.52304 4.00003 4.41004 2.87003 5.76504 2.45603C6.0055 2.38251 6.26493 2.40344 6.4905 2.51455C6.71606 2.62566 6.89077 2.81859 6.97904 3.05403L7.41404 4.21403C7.48407 4.40064 7.49673 4.60392 7.4504 4.79778C7.40407 4.99164 7.30087 5.16724 7.15404 5.30203L5.86004 6.48703C5.79626 6.54556 5.74873 6.61962 5.72209 6.70199C5.69545 6.78436 5.69061 6.87223 5.70804 6.95703L5.72004 7.00903L5.75104 7.13903C5.91197 7.77067 6.15717 8.37779 6.48004 8.94403C6.83175 9.54573 7.26822 10.0937 7.77604 10.571L7.81604 10.607C7.88064 10.6644 7.95899 10.704 8.04347 10.722C8.12794 10.7401 8.21564 10.736 8.29804 10.71L9.97104 10.183C10.1612 10.1233 10.3648 10.1218 10.5558 10.1786C10.7468 10.2355 10.9165 10.3481 11.043 10.502L11.835 11.463C12.165 11.863 12.125 12.451 11.746 12.804C10.709 13.771 9.28304 13.969 8.29104 13.172C7.07507 12.1912 6.04999 10.9949 5.26704 9.64303C4.47773 8.29217 3.9515 6.80446 3.71404 5.25803ZM6.75604 7.02303L7.82804 6.03903C8.12188 5.76956 8.32847 5.41843 8.42131 5.0307C8.51414 4.64298 8.48897 4.23635 8.34904 3.86303L7.91504 2.70303C7.73739 2.2295 7.38594 1.84148 6.93225 1.61798C6.47856 1.39448 5.95674 1.3523 5.47304 1.50003C3.79004 2.01503 2.43904 3.52403 2.72504 5.40903C2.92504 6.72503 3.38604 8.39903 4.40304 10.147C5.24775 11.6047 6.3535 12.8945 7.66504 13.952C9.15304 15.147 11.139 14.739 12.429 13.537C12.7982 13.1933 13.0222 12.7218 13.0555 12.2185C13.0887 11.7153 12.9287 11.2183 12.608 10.829L11.816 9.86703C11.5627 9.55951 11.2232 9.33468 10.8412 9.22136C10.4592 9.10805 10.0521 9.11141 9.67204 9.23103L8.28304 9.66803C7.92441 9.29826 7.61027 8.8878 7.34704 8.44503C7.09276 7.99739 6.8946 7.52013 6.75704 7.02403" fill="#A1A1A1"/>
</svg>
