<svg width="16" height="16" viewBox="0 0 16 16" fill="none" xmlns="http://www.w3.org/2000/svg">
<path d="M14 3.5H11V1C11 0.867392 10.9473 0.740215 10.8536 0.646447C10.7598 0.552678 10.6326 0.5 10.5 0.5C10.3674 0.5 10.2402 0.552678 10.1464 0.646447C10.0527 0.740215 10 0.867392 10 1V3.5H6V1C6 0.867392 5.94732 0.740215 5.85355 0.646447C5.75979 0.552678 5.63261 0.5 5.5 0.5C5.36739 0.5 5.24021 0.552678 5.14645 0.646447C5.05268 0.740215 5 0.867392 5 1V3.5H2.03437C1.6425 3.5 1.5 3.79875 1.5 4C1.5 4.13261 1.55268 4.25979 1.64645 4.35355C1.74021 4.44732 1.86739 4.5 2 4.5H3V10C3 10.663 3.26339 11.2989 3.73223 11.7678C4.20107 12.2366 4.83696 12.5 5.5 12.5H7.5V15C7.5 15.1326 7.55268 15.2598 7.64645 15.3536C7.74021 15.4473 7.86739 15.5 8 15.5C8.13261 15.5 8.25979 15.4473 8.35355 15.3536C8.44732 15.2598 8.5 15.1326 8.5 15V12.5H10.5C11.163 12.5 11.7989 12.2366 12.2678 11.7678C12.7366 11.2989 13 10.663 13 10V4.5H14C14.1326 4.5 14.2598 4.44732 14.3536 4.35355C14.4473 4.25979 14.5 4.13261 14.5 4C14.5 3.86739 14.4473 3.74021 14.3536 3.64645C14.2598 3.55268 14.1326 3.5 14 3.5ZM10.5 11.5H5.5C5.10218 11.5 4.72064 11.342 4.43934 11.0607C4.15804 10.7794 4 10.3978 4 10V4.5H12V10C12 10.3978 11.842 10.7794 11.5607 11.0607C11.2794 11.342 10.8978 11.5 10.5 11.5ZM9.41125 7.715C9.45726 7.78146 9.48647 7.85809 9.49637 7.93831C9.50628 8.01854 9.49659 8.09997 9.46813 8.17562L8.71813 10.1756C8.67155 10.2999 8.57749 10.4007 8.45665 10.4556C8.3358 10.5106 8.19807 10.5153 8.07375 10.4688C7.94943 10.4222 7.8487 10.3281 7.79373 10.2073C7.73876 10.0864 7.73405 9.9487 7.78062 9.82438L8.28063 8.5H7C6.9192 8.5 6.83961 8.48042 6.76804 8.44293C6.69647 8.40545 6.63504 8.35117 6.58903 8.28476C6.54301 8.21835 6.51378 8.14178 6.50382 8.0616C6.49387 7.98142 6.5035 7.90002 6.53188 7.82438L7.28188 5.82438C7.32845 5.70006 7.42251 5.59933 7.54335 5.54436C7.6642 5.48939 7.80193 5.48467 7.92625 5.53125C8.05057 5.57783 8.1513 5.67189 8.20627 5.79273C8.26124 5.91357 8.26595 6.0513 8.21937 6.17562L7.71938 7.5H9C9.08082 7.49993 9.16045 7.51945 9.23208 7.5569C9.3037 7.59434 9.36518 7.64859 9.41125 7.715Z" fill="#A2A2A2"/>
</svg>
