<svg width="16" height="16" viewBox="0 0 16 16" fill="none" xmlns="http://www.w3.org/2000/svg">
<path d="M12.6667 2H3.33333C2.59695 2 2 2.59695 2 3.33333V12.6667C2 13.403 2.59695 14 3.33333 14H12.6667C13.403 14 14 13.403 14 12.6667V3.33333C14 2.59695 13.403 2 12.6667 2Z" stroke="#A1A1A1" stroke-width="1.33333" stroke-linecap="round" stroke-linejoin="round"/>
<path d="M6 11.3333V4.66663H8.66667C9.1971 4.66663 9.70581 4.87734 10.0809 5.25241C10.456 5.62749 10.6667 6.13619 10.6667 6.66663C10.6667 7.19706 10.456 7.70577 10.0809 8.08084C9.70581 8.45591 9.1971 8.66663 8.66667 8.66663H6" stroke="#A1A1A1" stroke-width="1.33333" stroke-linecap="round" stroke-linejoin="round"/>
</svg>
