<svg width="16" height="16" viewBox="0 0 16 16" fill="none" xmlns="http://www.w3.org/2000/svg">
<path d="M7.99994 1.33331C8.76861 1.33331 9.49328 1.52664 10.1259 1.86664C10.0753 2.16331 9.97661 2.37331 9.84194 2.50864C9.75803 2.58939 9.65904 2.65282 9.55061 2.69531C9.13458 2.4999 8.68414 2.38835 8.225 2.36702C7.76586 2.3457 7.30702 2.41501 6.87467 2.57102C6.44232 2.72702 6.04493 2.96665 5.70519 3.27623C5.36545 3.58581 5.09002 3.95928 4.89461 4.37531C4.6992 4.79133 4.58765 5.24178 4.56633 5.70092C4.545 6.16005 4.61432 6.6189 4.77032 7.05125C4.92632 7.4836 5.16596 7.88098 5.47554 8.22072C5.78512 8.56046 6.15858 8.8359 6.57461 9.03131C7.03328 9.20997 7.45728 9.30864 7.84528 9.32931L7.99994 9.33331C8.42994 9.33331 8.90528 9.23331 9.42461 9.03197C10.0327 8.7598 10.551 8.32054 10.9193 7.76531C11.3459 7.91197 11.8586 7.82264 12.1819 7.49797C11.9067 8.1876 11.4654 8.79858 10.8973 9.27664L11.9779 12.52C12.064 12.7781 12.0571 13.0582 11.9585 13.3117C11.8599 13.5653 11.6758 13.7765 11.4379 13.9086C10.5239 14.4173 9.37594 14.6666 7.99994 14.6666C6.62394 14.6666 5.47594 14.4173 4.56194 13.9086C4.32413 13.7765 4.14 13.5653 4.04139 13.3117C3.94278 13.0582 3.9359 12.7781 4.02194 12.52L5.10261 9.27664C4.39635 8.68241 3.8899 7.88538 3.65191 6.99359C3.41393 6.10181 3.45592 5.15842 3.7722 4.2913C4.08848 3.42419 4.66375 2.67531 5.42001 2.14618C6.17627 1.61705 7.07695 1.33327 7.99994 1.33331ZM10.0379 9.86064L9.79794 9.95997L9.78594 9.96531C9.28948 10.1799 8.75823 10.3028 8.21794 10.328H8.20661C8.19042 10.3294 8.17419 10.3303 8.15794 10.3306L7.99994 10.3333L7.86928 10.3306L7.78261 10.3273C7.24208 10.3029 6.71051 10.1802 6.21394 9.96531L6.20194 9.95997C6.12136 9.9283 6.04134 9.89518 5.96194 9.86064L4.97061 12.8366C4.95838 12.8734 4.95934 12.9133 4.97333 12.9494C4.98733 12.9856 5.01347 13.0157 5.04728 13.0346C5.80061 13.4526 6.78261 13.6666 7.99994 13.6666C9.21728 13.6666 10.1999 13.4533 10.9526 13.0346C10.9864 13.0157 11.0126 12.9856 11.0266 12.9494C11.0405 12.9133 11.0415 12.8734 11.0293 12.8366L10.0379 9.86064ZM7.79328 10.3286L7.86928 10.3306L7.89128 10.332L7.99994 10.3333C7.93061 10.3333 7.86194 10.332 7.79328 10.3286ZM11.9946 1.25331L11.9999 1.33331C11.9999 2.09997 12.1799 2.63997 12.5199 2.97997C12.8339 3.29331 13.3186 3.47131 13.9933 3.49664L14.1666 3.49997C14.8053 3.49997 14.8319 4.41864 14.2466 4.49464L14.1666 4.49997C13.3999 4.49997 12.8599 4.67997 12.5199 5.01997C12.2066 5.33464 12.0286 5.81864 12.0033 6.49331L11.9999 6.66664C11.9999 7.33331 10.9999 7.33331 10.9999 6.66664C10.9999 5.89997 10.8199 5.35997 10.4799 5.01997C10.1653 4.70664 9.68128 4.52864 9.00661 4.50331L8.83328 4.49997C8.19461 4.49997 8.16794 3.58131 8.75328 3.50531L8.83328 3.49997C9.59994 3.49997 10.1399 3.31997 10.4799 2.97997C10.8199 2.63997 10.9999 2.09997 10.9999 1.33331C10.9999 0.69464 11.9186 0.667973 11.9946 1.25331ZM11.4999 3.30197L11.4039 3.43731C11.2369 3.65815 11.0331 3.8485 10.8013 3.99997C11.0796 4.18224 11.3174 4.41984 11.4999 4.69797C11.6823 4.41989 11.9199 4.1823 12.1979 3.99997C11.9666 3.84814 11.763 3.65784 11.5959 3.43731L11.4999 3.30197Z" fill="#A2A2A2"/>
</svg>
