<svg width="16" height="16" viewBox="0 0 16 16" fill="none" xmlns="http://www.w3.org/2000/svg">
<path d="M7.99996 15.5434C11.73 15.5434 14.8302 12.4497 14.8302 8.71311C14.8302 5.41854 12.4197 2.62597 9.29225 2.01025V1.05883C9.29225 0.583398 8.96425 0.455969 8.59596 0.717398L6.45968 2.21054C6.15854 2.42483 6.15168 2.74625 6.45968 2.9674L8.58911 4.4674C8.96425 4.73511 9.29225 4.60797 9.29225 4.12568V3.16854C11.8237 3.74426 13.6851 6.00111 13.6851 8.71311C13.6882 9.46089 13.5433 10.2019 13.2588 10.8934C12.9743 11.585 12.5557 12.2134 12.0273 12.7424C11.4988 13.2715 10.8709 13.6908 10.1798 13.9762C9.48856 14.2615 8.74774 14.4073 7.99996 14.4051C4.83911 14.4051 2.30139 11.8737 2.30796 8.71311C2.31454 6.8114 3.23882 5.13054 4.66511 4.11283C4.93968 3.90511 5.02682 3.59026 4.85253 3.30911C4.69196 3.03483 4.32368 2.96083 4.02882 3.18854C2.30139 4.44083 1.16968 6.46311 1.16968 8.71311C1.16968 12.4497 4.26339 15.5434 7.99996 15.5434ZM10.2028 11.5323C11.3145 11.5323 12.038 10.4808 12.038 8.87397C12.038 7.2534 11.3145 6.18854 10.2031 6.18854C9.08482 6.18854 8.36168 7.24654 8.36168 8.87397C8.36168 10.4811 9.09111 11.5323 10.2028 11.5323ZM5.88425 11.5323C6.93568 11.5323 7.68539 10.8963 7.68539 9.99226C7.68539 9.3694 7.27025 8.85368 6.68111 8.74654C7.14968 8.61283 7.51825 8.11711 7.51825 7.55454C7.51825 6.75111 6.86196 6.18883 5.92425 6.18883C5.11396 6.18883 4.43768 6.64397 4.29025 7.2934C4.27711 7.37397 4.27025 7.44083 4.27025 7.51454C4.27025 7.75568 4.42454 7.92311 4.65196 7.92311C4.83939 7.92311 4.95996 7.82254 5.04054 7.60825C5.17425 7.18625 5.45568 6.9654 5.90425 6.9654C6.37282 6.9654 6.69454 7.24654 6.69454 7.65511C6.69454 8.08368 6.36625 8.39854 5.89739 8.39854H5.60968C5.38196 8.39854 5.23453 8.55254 5.23453 8.78683C5.23453 9.00768 5.38882 9.1754 5.60968 9.1754H5.92425C6.49339 9.1754 6.84854 9.48968 6.84854 9.95883C6.84854 10.414 6.44654 10.7623 5.89082 10.7623C5.42225 10.7623 5.08739 10.528 4.93996 10.1128C4.85282 9.89168 4.73911 9.79797 4.55139 9.79797C4.33054 9.79797 4.16996 9.97226 4.16996 10.2065C4.16996 10.2803 4.17653 10.3537 4.19653 10.4274C4.33739 11.0568 5.06053 11.5323 5.88425 11.5323ZM10.2034 10.722C9.60739 10.722 9.23225 10.0191 9.23225 8.87397C9.23225 7.70854 9.60082 6.99883 10.2034 6.99883C10.7994 6.99883 11.1608 7.70197 11.1608 8.87397C11.1608 10.0188 10.7925 10.722 10.2034 10.722Z" fill="#A2A2A2"/>
</svg>
