<svg width="16" height="16" viewBox="0 0 16 16" fill="none" xmlns="http://www.w3.org/2000/svg">
<path fill-rule="evenodd" clip-rule="evenodd" d="M4.77202 3.92322L12.0768 11.228C12.8685 10.2283 13.2652 8.97248 13.1915 7.69937C13.1178 6.42627 12.5789 5.22462 11.6771 4.3229C10.7754 3.42117 9.57377 2.88223 8.30067 2.80854C7.02756 2.73485 5.77176 3.13155 4.77202 3.92322ZM11.228 12.0768L3.92322 4.77202C3.13155 5.77176 2.73485 7.02756 2.80854 8.30067C2.88223 9.57377 3.42117 10.7754 4.3229 11.6771C5.22462 12.5789 6.42627 13.1178 7.69937 13.1915C8.97248 13.2652 10.2283 12.8685 11.228 12.0768ZM3.47442 3.47442C4.06873 2.88011 4.77428 2.40868 5.55078 2.08704C6.32729 1.7654 7.15954 1.59985 8.00002 1.59985C8.8405 1.59985 9.67275 1.7654 10.4493 2.08704C11.2258 2.40868 11.9313 2.88011 12.5256 3.47442C13.1199 4.06873 13.5914 4.77428 13.913 5.55078C14.2346 6.32729 14.4002 7.15954 14.4002 8.00002C14.4002 8.8405 14.2346 9.67275 13.913 10.4493C13.5914 11.2258 13.1199 11.9313 12.5256 12.5256C11.3254 13.7259 9.69745 14.4002 8.00002 14.4002C6.30259 14.4002 4.67468 13.7259 3.47442 12.5256C2.27415 11.3254 1.59985 9.69745 1.59985 8.00002C1.59985 6.30259 2.27415 4.67468 3.47442 3.47442Z" fill="#A1A1A1"/>
</svg>
