<svg width="16" height="16" viewBox="0 0 16 16" fill="none" xmlns="http://www.w3.org/2000/svg">
<g clip-path="url(#clip0_35_902)">
<path d="M11.251 0.0679535C11.3489 0.124692 11.4246 0.212943 11.4659 0.318291C11.5071 0.423639 11.5114 0.539855 11.478 0.647953L9.67702 6.49995H13C13.0977 6.49991 13.1932 6.52847 13.2748 6.5821C13.3564 6.63574 13.4205 6.71209 13.4593 6.80175C13.498 6.8914 13.5096 6.99043 13.4927 7.08661C13.4757 7.18278 13.431 7.2719 13.364 7.34295L5.36402 15.843C5.28661 15.9253 5.1836 15.9789 5.07179 15.9952C4.95998 16.0115 4.84595 15.9894 4.74829 15.9326C4.65063 15.8757 4.5751 15.7875 4.53401 15.6822C4.49292 15.577 4.48869 15.4609 4.52202 15.353L6.32302 9.49995H3.00002C2.90236 9.49999 2.80683 9.47143 2.72522 9.4178C2.64361 9.36417 2.57949 9.28782 2.54078 9.19816C2.50207 9.10851 2.49046 9.00948 2.50738 8.9133C2.52431 8.81712 2.56902 8.72801 2.63602 8.65695L10.636 0.156953C10.7133 0.0747526 10.8162 0.0211221 10.9278 0.00478201C11.0395 -0.011558 11.1534 0.0103533 11.251 0.0669535V0.0679535ZM4.15702 8.49995H7.00002C7.07826 8.49994 7.15542 8.51829 7.22529 8.55353C7.29515 8.58877 7.35577 8.63991 7.40227 8.70285C7.44876 8.76578 7.47984 8.83875 7.493 8.91588C7.50615 8.99302 7.50102 9.07216 7.47802 9.14695L6.11002 13.59L11.842 7.49995H9.00002C8.92177 7.49997 8.84461 7.48162 8.77474 7.44638C8.70488 7.41114 8.64426 7.36 8.59777 7.29706C8.55127 7.23413 8.52019 7.16116 8.50704 7.08402C8.49388 7.00689 8.49901 6.92774 8.52202 6.85295L9.89002 2.40995L4.15702 8.49995Z" fill="#A2A2A2"/>
</g>
<defs>
<clipPath id="clip0_35_902">
<rect width="16" height="16" fill="white"/>
</clipPath>
</defs>
</svg>
