<svg width="16" height="16" viewBox="0 0 16 16" fill="none" xmlns="http://www.w3.org/2000/svg">
<path d="M5.66669 12.6667L7.33335 10H6.33335V8L4.66669 10.6667H5.66669V12.6667ZM4.00002 6.66667H8.00002V3.33333H4.00002V6.66667ZM4.00002 12.6667H8.00002V8H4.00002V12.6667ZM2.66669 14V3.33333C2.66669 2.96667 2.79735 2.65289 3.05869 2.392C3.32002 2.13111 3.6338 2.00044 4.00002 2H8.00002C8.36669 2 8.68069 2.13067 8.94202 2.392C9.20335 2.65333 9.3338 2.96711 9.33335 3.33333V8H10.1667C10.4889 8 10.764 8.114 10.992 8.342C11.22 8.57 11.3338 8.84489 11.3334 9.16667V12.25C11.3334 12.4389 11.4111 12.6111 11.5667 12.7667C11.7222 12.9222 11.8945 13 12.0834 13C12.2834 13 12.4585 12.9222 12.6087 12.7667C12.7589 12.6111 12.8338 12.4389 12.8334 12.25V6H12.6667C12.4778 6 12.3196 5.936 12.192 5.808C12.0645 5.68 12.0005 5.52178 12 5.33333V4H12.3334V3H13V4H13.6667V3H14.3334V4H14.6667V5.33333C14.6667 5.52222 14.6027 5.68067 14.4747 5.80867C14.3467 5.93667 14.1885 6.00044 14 6H13.8334V12.25C13.8334 12.7167 13.6638 13.1251 13.3247 13.4753C12.9856 13.8256 12.572 14.0004 12.084 14C11.6062 14 11.1951 13.8249 10.8507 13.4747C10.5062 13.1244 10.334 12.7162 10.334 12.25V9.16667C10.334 9.11111 10.3202 9.06956 10.2927 9.042C10.2651 9.01444 10.2234 9.00044 10.1674 9H9.33335V14H2.66669Z" fill="#A1A1A1"/>
</svg>
