<svg width="14" height="14" viewBox="0 0 14 14" fill="none" xmlns="http://www.w3.org/2000/svg">
<path d="M6.25 7C6.25 7.19891 6.32901 7.38968 6.46967 7.53033C6.61032 7.67098 6.80108 7.75 7 7.75C7.19891 7.75 7.38967 7.67098 7.53033 7.53033C7.67098 7.38968 7.75 7.19891 7.75 7C7.75 6.80109 7.67098 6.61032 7.53033 6.46967C7.38967 6.32902 7.19891 6.25 7 6.25C6.80108 6.25 6.61032 6.32902 6.46967 6.46967C6.32901 6.61032 6.25 6.80109 6.25 7ZM9.375 7C9.375 7.19891 9.45402 7.38968 9.59467 7.53033C9.73532 7.67098 9.92608 7.75 10.125 7.75C10.3239 7.75 10.5147 7.67098 10.6553 7.53033C10.796 7.38968 10.875 7.19891 10.875 7C10.875 6.80109 10.796 6.61032 10.6553 6.46967C10.5147 6.32902 10.3239 6.25 10.125 6.25C9.92608 6.25 9.73532 6.32902 9.59467 6.46967C9.45402 6.61032 9.375 6.80109 9.375 7ZM3.125 7C3.125 7.19891 3.20401 7.38968 3.34467 7.53033C3.48532 7.67098 3.67608 7.75 3.875 7.75C4.07391 7.75 4.26468 7.67098 4.40533 7.53033C4.54598 7.38968 4.625 7.19891 4.625 7C4.625 6.80109 4.54598 6.61032 4.40533 6.46967C4.26468 6.32902 4.07391 6.25 3.875 6.25C3.67608 6.25 3.48532 6.32902 3.34467 6.46967C3.20401 6.61032 3.125 6.80109 3.125 7ZM13.4562 4.2875C13.1031 3.44844 12.5969 2.69531 11.9516 2.04844C11.3107 1.40532 10.55 0.894114 9.7125 0.54375C8.85312 0.182813 7.94062 0 7 0H6.96875C6.02187 0.0046875 5.10468 0.192188 4.24218 0.560938C3.41181 0.914895 2.65823 1.42701 2.02343 2.06875C1.38437 2.71406 0.88281 3.46406 0.535935 4.3C0.17656 5.16563 -0.00469041 6.08594 -2.90789e-06 7.03281C0.00529905 8.11792 0.262016 9.18704 0.749997 10.1562V12.5312C0.749997 12.7219 0.825722 12.9047 0.960514 13.0395C1.09531 13.1743 1.27812 13.25 1.46875 13.25H3.84531C4.81452 13.738 5.88364 13.9947 6.96875 14H7.00156C7.9375 14 8.84531 13.8188 9.7 13.4641C10.5333 13.1179 11.2912 12.6126 11.9312 11.9766C12.5766 11.3375 13.0844 10.5906 13.4391 9.75781C13.8078 8.89531 13.9953 7.97812 14 7.03125C14.0047 6.07969 13.8203 5.15625 13.4562 4.2875ZM11.0953 11.1313C10 12.2156 8.54687 12.8125 7 12.8125H6.97343C6.03125 12.8078 5.09531 12.5734 4.26875 12.1328L4.1375 12.0625H1.9375V9.8625L1.86718 9.73125C1.42656 8.90469 1.19218 7.96875 1.1875 7.02656C1.18125 5.46875 1.77656 4.00625 2.86875 2.90469C3.95937 1.80312 5.41718 1.19375 6.975 1.1875H7.00156C7.78281 1.1875 8.54062 1.33906 9.25468 1.63906C9.95156 1.93125 10.5766 2.35156 11.1141 2.88906C11.65 3.425 12.0719 4.05156 12.3641 4.74844C12.6672 5.47031 12.8187 6.23594 12.8156 7.02656C12.8062 8.58281 12.1953 10.0406 11.0953 11.1313Z" fill="#191F28"/>
</svg>
