<svg width="12" height="14" viewBox="0 0 12 14" fill="none" xmlns="http://www.w3.org/2000/svg">
<path d="M10 13.6667C9.44444 13.6667 8.97222 13.4722 8.58333 13.0833C8.19444 12.6944 8 12.2222 8 11.6667C8 11.5889 8.00556 11.5082 8.01667 11.4247C8.02778 11.3411 8.04444 11.2662 8.06667 11.2L3.36667 8.46667C3.17778 8.63333 2.96667 8.764 2.73333 8.85867C2.5 8.95333 2.25556 9.00044 2 9C1.44444 9 0.972222 8.80556 0.583333 8.41667C0.194444 8.02778 0 7.55556 0 7C0 6.44444 0.194444 5.97222 0.583333 5.58333C0.972222 5.19444 1.44444 5 2 5C2.25556 5 2.5 5.04733 2.73333 5.142C2.96667 5.23667 3.17778 5.36711 3.36667 5.53333L8.06667 2.8C8.04444 2.73333 8.02778 2.65844 8.01667 2.57533C8.00556 2.49222 8 2.41156 8 2.33333C8 1.77778 8.19444 1.30556 8.58333 0.916666C8.97222 0.527777 9.44444 0.333333 10 0.333333C10.5556 0.333333 11.0278 0.527777 11.4167 0.916666C11.8056 1.30556 12 1.77778 12 2.33333C12 2.88889 11.8056 3.36111 11.4167 3.75C11.0278 4.13889 10.5556 4.33333 10 4.33333C9.74444 4.33333 9.5 4.28622 9.26667 4.192C9.03333 4.09778 8.82222 3.96711 8.63333 3.8L3.93333 6.53333C3.95556 6.6 3.97222 6.67511 3.98333 6.75867C3.99444 6.84222 4 6.92267 4 7C4 7.07733 3.99444 7.158 3.98333 7.242C3.97222 7.326 3.95556 7.40089 3.93333 7.46667L8.63333 10.2C8.82222 10.0333 9.03333 9.90289 9.26667 9.80867C9.5 9.71444 9.74444 9.66711 10 9.66667C10.5556 9.66667 11.0278 9.86111 11.4167 10.25C11.8056 10.6389 12 11.1111 12 11.6667C12 12.2222 11.8056 12.6944 11.4167 13.0833C11.0278 13.4722 10.5556 13.6667 10 13.6667Z" fill="#191F28"/>
</svg>
